<?xml version="1.0" encoding="UTF-8" standalone="no"?>
<svg
   xmlns:dc="http://purl.org/dc/elements/1.1/"
   xmlns:cc="http://creativecommons.org/ns#"
   xmlns:rdf="http://www.w3.org/1999/02/22-rdf-syntax-ns#"
   xmlns:svg="http://www.w3.org/2000/svg"
   xmlns="http://www.w3.org/2000/svg"
   xmlns:sodipodi="http://sodipodi.sourceforge.net/DTD/sodipodi-0.dtd"
   xmlns:inkscape="http://www.inkscape.org/namespaces/inkscape"
   viewBox="0 0 466.66666 466.66666"
   height="466.66666"
   width="466.66666"
   xml:space="preserve"
   id="svg2"
   version="1.1"
   sodipodi:docname="HUD.svg"
   inkscape:version="0.92.3 (2405546, 2018-03-11)"><sodipodi:namedview
     pagecolor="#ffffff"
     bordercolor="#666666"
     borderopacity="1"
     objecttolerance="10"
     gridtolerance="10"
     guidetolerance="10"
     inkscape:pageopacity="0"
     inkscape:pageshadow="2"
     inkscape:window-width="1920"
     inkscape:window-height="1001"
     id="namedview68"
     showgrid="false"
     inkscape:pagecheckerboard="true"
     inkscape:zoom="0.5057143"
     inkscape:cx="945.19772"
     inkscape:cy="233.33333"
     inkscape:window-x="-9"
     inkscape:window-y="-9"
     inkscape:window-maximized="1"
     inkscape:current-layer="svg2" /><metadata
     id="metadata8"><rdf:RDF><cc:Work
         rdf:about=""><dc:format>image/svg+xml</dc:format><dc:type
           rdf:resource="http://purl.org/dc/dcmitype/StillImage" /><dc:title /></cc:Work></rdf:RDF></metadata><defs
     id="defs6" /><path
     id="path16"
     style="fill:#ffffff;fill-opacity:1;fill-rule:nonzero;stroke:none;stroke-width:0.13333333"
     d="m 233.33333,466.66667 c -62.32533,0 -120.9208,-24.2708 -164.991598,-68.3412 C 24.270799,354.25467 0,295.65867 0,233.33334 0,171.00801 24.270799,112.41201 68.341732,68.341347 112.41253,24.270681 171.008,1.5e-5 233.33333,1.5e-5 c 62.32533,0 120.92133,24.270666 164.99199,68.341332 44.07067,44.070663 68.34133,102.666663 68.34133,164.991993 0,62.32533 -24.27066,120.92133 -68.34133,164.99213 -44.07066,44.0704 -102.66666,68.3412 -164.99199,68.3412 m 0,-465.042655 c -127.76507,0 -231.70937,103.943995 -231.70937,231.709325 0,127.76507 103.9443,231.70937 231.70937,231.70937 127.76533,0 231.70933,-103.9443 231.70933,-231.70937 0,-127.76533 -103.944,-231.709325 -231.70933,-231.709325"
     inkscape:connector-curvature="0" /><path
     id="path18"
     style="fill:#ffffff;fill-opacity:1;fill-rule:nonzero;stroke:none;stroke-width:0.13333333"
     d="m 291.17066,38.288014 0.876,-2.069333 1.03467,-1.513334 1.672,-1.911999 1.51333,-1.154667 1.55333,-0.994667 1.752,-0.916 1.31334,-0.358666 2.15066,-0.278667 h 2.03067 l 3.06667,0.517333 2.668,1.274667 1.512,0.916 1.43333,1.234667 1.63333,1.671999 0.916,1.792 0.756,2.030667 0.23867,1.274667 0.16,2.428 -0.16,1.672 -0.47733,3.545333 -0.27867,0.796 -0.23867,0.756 -0.63733,1.114666 -1.15467,1.792 -1.672,2.309334 -2.54933,1.912 -3.18533,1.393333 -2.03067,0.397333 h -2.42933 l -2.14934,-0.278666 -1.792,-0.516 -2.15066,-0.757334 -1.27334,-0.637333 -1.036,-0.876 -1.03466,-0.796 -0.75734,-1.114667 -1.27333,-2.030666 -0.63733,-1.912 -0.35867,-2.946667 0.12,-2.946666 0.11867,-1.632 0.75733,-3.186667 2.94533,2.788 -0.39733,1.912 v 3.584 l 0.39733,1.392 0.12,1.036 0.63734,1.114666 0.756,1.274667 0.916,0.796 1.39333,0.996 1.63333,0.876 0.51734,0.278667 1.912,0.517333 h 1.03466 l 2.03067,-0.278667 1.036,-0.238666 1.39333,-0.757334 2.14934,-1.672 1.27466,-1.513333 1.15467,-1.790667 0.75733,-2.030666 0.636,-1.673333 0.27867,-3.305334 -0.27867,-2.189333 -0.35733,-0.876 -1.036,-2.030667 -1.51333,-1.792 -1.15467,-0.876 -0.876,-0.398666 -1.43333,-0.637333 -1.752,-0.238667 h -2.708 l -1.27334,0.238667 -1.39466,0.637333 -0.876,0.637333 -1.672,1.274667 -1.15467,1.393333 -0.99467,1.792 -0.63733,1.154667 -0.51867,1.393333 -2.94533,-2.788"
     inkscape:connector-curvature="0" /><path
     id="path20"
     style="fill:#ffffff;fill-opacity:1;fill-rule:nonzero;stroke:none;stroke-width:0.13333333"
     d="m 315.25999,63.892013 13.14,-24.487999 16.40667,8.84 -1.51334,2.668 -13.14133,-7.168 -4.3,7.924 11.70667,6.250666 -1.51334,2.908 -11.70666,-6.372 -5.89333,10.990667 -3.18534,-1.553334"
     inkscape:connector-curvature="0" /><path
     id="path22"
     style="fill:#ffffff;fill-opacity:1;fill-rule:nonzero;stroke:none;stroke-width:0.13333333"
     d="m 342.53599,78.824013 16.44533,-22.457333 2.788,2.190667 -6.72933,9.436 11.188,8.242666 7.008,-9.397333 2.94667,2.150667 -16.32534,22.417332 -3.02666,-2.149333 7.36666,-10.074666 -11.468,-8.282667 -7.12666,10.074667 -3.06667,-2.150667"
     inkscape:connector-curvature="0" /><path
     id="path24"
     style="fill:#ffffff;fill-opacity:1;fill-rule:nonzero;stroke:none;stroke-width:0.13333333"
     d="m 377.57732,87.624013 1.672,-1.433333 0.63734,-0.477334 0.35866,-0.278666 2.30934,-0.996 1.792,-0.517334 1.91066,-0.278666 h 1.91067 l 2.032,0.397333 1.79067,0.637333 2.032,0.876 2.30933,2.070667 1.512,1.633333 0.996,1.393333 0.51733,1.154667 0.63734,1.792 0.39866,1.154667 0.23867,1.910666 v 1.513334 l -0.47733,1.911997 -0.39867,1.39334 -1.036,2.19066 -0.99467,1.39334 -1.792,2.14933 -1.15466,1.27467 -2.15067,1.55333 -2.428,1.11467 -0.63733,0.39733 -2.03067,0.39867 -2.03067,0.24 -2.07066,-0.12 -2.668,-0.916 -2.668,-1.27467 -1.27467,-0.99467 -1.39333,-1.27466 -0.916,-1.03467 -0.99467,-1.116 -0.63733,-1.27333 -0.75734,-1.912 -0.27866,-1.15467 -0.11867,-1.393334 v -1.910667 l 0.23867,-1.156 0.39733,-1.552 0.63733,-1.274666 1.792,-3.185334 0.996,-1.154666 1.792,-1.872 1.27334,3.664 -1.91067,2.548 -0.996,2.668 -0.51733,1.154666 v 3.065331 l 0.51733,1.55334 0.63733,1.51333 1.11467,1.672 0.39867,0.24 0.756,0.756 1.036,1.03467 1.91066,0.75733 2.03067,0.23867 h 1.67333 l 2.26934,-0.51734 2.42933,-0.876 1.672,-1.39333 2.42933,-2.19067 0.876,-0.996 1.03467,-1.792 0.23867,-1.154664 0.51733,-1.910667 v -1.393333 l -0.27867,-1.792 -0.35733,-1.274667 -0.916,-1.792 -1.27467,-1.512 -0.35866,-0.24 -1.03467,-0.916 -1.912,-0.994666 -2.428,-0.517334 h -2.03067 l -1.39466,0.397334 -1.672,0.478666 -2.26934,1.393334 -2.19066,1.792 -1.27334,-3.664"
     inkscape:connector-curvature="0" /><path
     id="path26"
     style="fill:#ffffff;fill-opacity:1;fill-rule:nonzero;stroke:none;stroke-width:0.13333333"
     d="m 397.32666,118.32401 16.32666,-11.228 2.26934,3.304 -16.28667,11.10934 -0.796,0.51866 -1.11467,1.39334 -0.39866,0.75733 -0.35867,1.632 0.12,2.07067 0.39867,1.11466 0.63733,1.15467 1.11467,1.55333 0.916,0.756 1.11466,0.876 1.672,0.51733 0.63734,0.12 1.792,-0.12 2.03066,-0.87466 16.32534,-11.10933 2.03066,3.06533 -16.16666,11.22933 -1.91067,1.03467 -0.916,0.23866 -1.672,0.24 -1.912,-0.24 -1.752,-0.51733 -2.30933,-1.51333 -2.15067,-1.91067 -1.672,-2.548 -1.15467,-2.58933 -0.23866,-1.87067 v -2.072 l 0.39866,-1.75066 0.99467,-1.792 1.15467,-1.792 0.876,-0.75734"
     inkscape:connector-curvature="0" /><path
     id="path28"
     style="fill:#ffffff;fill-opacity:1;fill-rule:nonzero;stroke:none;stroke-width:0.13333333"
     d="m 413.13466,142.25601 1.67333,3.18533 -0.75733,0.39867 -1.43334,1.512 -0.876,1.036 -0.51733,1.91067 v 1.27466 l 0.27867,1.792 0.35866,1.39334 0.756,1.55333 1.43334,1.51333 1.27466,1.03467 1.752,0.75733 h 0.916 l 1.11467,-0.12 0.63733,-0.27866 0.796,-0.51734 0.756,-0.996 0.39867,-1.03466 0.23867,-2.03067 -0.39734,-1.39467 -1.792,-7.40533 -0.12,-1.67333 0.39867,-2.26934 0.63733,-1.39333 0.876,-1.27467 0.796,-0.51733 1.91067,-1.03467 1.792,-0.47866 h 0.876 l 2.15067,0.23866 1.15466,0.51734 1.39334,0.87733 1.036,1.03467 1.792,2.26933 0.636,1.036 0.996,2.668 0.39866,1.512 0.11867,1.43467 -0.11867,2.548 -0.51866,1.27466 -0.51734,0.99467 -0.876,1.036 -1.03466,0.756 -1.15467,0.796 -1.752,-3.344 0.51733,-0.23867 0.876,-0.75733 0.63734,-0.796 0.23866,-0.35867 0.27867,-1.03466 0.23867,-1.67334 -0.63734,-2.26933 -0.756,-1.792 -1.036,-1.27333 -0.876,-0.75734 -1.512,-0.876 -1.036,-0.27866 h -1.03466 l -1.15467,0.51733 -0.63733,0.12 -0.63734,1.03467 -0.23866,0.996 v 1.792 l 1.792,8.16266 0.11866,2.94667 -0.23866,2.26933 -0.796,1.39334 -0.75734,1.27466 -1.39333,1.036 -1.03467,0.51734 -1.912,0.47733 -0.99466,0.27867 -1.792,-0.39734 -1.792,-0.63733 -1.63334,-0.996 -1.672,-1.39333 -1.27466,-1.55334 -1.15467,-1.752 -0.756,-2.07066 -0.63733,-2.03067 -0.23867,-1.91067 v -1.036 l 0.47733,-2.03066 0.79734,-1.91067 0.636,-0.75733 1.51333,-1.55334 0.916,-0.636 1.11467,-0.63733"
     inkscape:connector-curvature="0" /><path
     id="path30"
     style="fill:#ffffff;fill-opacity:1;fill-rule:nonzero;stroke:none;stroke-width:0.13333333"
     d="m 417.83332,173.39468 26.79867,-7.80534 0.876,3.30534 -26.75867,7.804 -0.916,-3.304"
     inkscape:connector-curvature="0" /><path
     id="path32"
     style="fill:#ffffff;fill-opacity:1;fill-rule:nonzero;stroke:none;stroke-width:0.13333333"
     d="m 421.69599,187.01201 27.396,-5.256 0.876,4.5 -19.472,17.71867 22.02,-4.22 0.756,3.58266 -27.51467,5.09734 -0.63733,-4.10134 19.11333,-17.95866 -21.78,4.22133 -0.75733,-3.584"
     inkscape:connector-curvature="0" /><path
     id="path34"
     style="fill:#ffffff;fill-opacity:1;fill-rule:nonzero;stroke:none;stroke-width:0.13333333"
     d="m 441.28666,213.37201 3.06666,0.39867 2.94667,0.876 2.18933,1.15466 1.39467,1.03467 1.632,1.912 1.15467,1.632 0.63733,1.27467 0.876,2.94666 0.27867,1.552 v 2.15067 l -0.51734,2.94667 -0.75733,1.752 -0.916,1.27466 -1.11467,1.672 -0.796,0.51734 -1.51333,0.996 -0.876,0.27866 -1.39333,0.35867 -0.27867,-3.544 h 0.27867 l 1.51333,-0.916 1.27333,-1.39333 0.996,-1.63334 0.39867,-1.03466 0.39733,-2.03067 v -1.27467 l -0.27866,-1.27466 -0.51734,-1.43334 -0.63733,-1.752 -0.756,-1.15466 -1.116,-1.03467 -1.79067,-1.27467 -3.06666,-1.03466 -1.15467,-0.12 h -2.668 l -3.70267,0.63733 -3.06666,1.27467 -1.27334,1.03466 -0.63733,0.63734 -0.876,1.792 -0.63733,1.51333 -0.27867,1.03467 v 2.668 l 0.27867,1.55333 0.876,2.26933 0.27866,0.63734 1.39334,1.672 0.63733,0.63733 1.752,0.876 0.916,0.51733 2.26933,0.12 1.43334,-0.12 -0.796,-8.8 3.22533,-0.12 1.11467,11.708 -14.772,1.39334 -0.24,-2.668 3.18666,-0.876 -1.55333,-1.55334 -2.03067,-2.508 -0.75733,-1.912 -0.39733,-2.07066 -0.35867,-1.752 0.23867,-1.91067 0.51733,-2.828 0.75733,-1.672 1.27334,-1.632 2.03066,-2.07067 1.792,-1.11466 3.18534,-1.39467 5.336,-0.796"
     inkscape:connector-curvature="0" /><path
     id="path36"
     style="fill:#ffffff;fill-opacity:1;fill-rule:nonzero;stroke:none;stroke-width:0.13333333"
     d="m 15.384933,262.07068 29.425999,2.94666 1.154667,4.3 -24.607733,16.60533 -0.995867,-4.10133 6.889067,-4.81867 -2.4292,-10.19333 -8.4016,-0.63733 -1.035333,-4.10133 12.861466,4.85733 2.070267,8.124 10.4328,-6.72934 -12.503067,-1.39466 -12.861466,-4.85733"
     inkscape:connector-curvature="0" /><path
     id="path38"
     style="fill:#ffffff;fill-opacity:1;fill-rule:nonzero;stroke:none;stroke-width:0.13333333"
     d="m 19.207333,293.80667 26.121333,-9.55733 1.672399,4.06133 -16.325999,21.02534 21.144266,-7.884 1.154667,3.18533 -26.002133,9.83467 -1.3932,-3.98134 15.688533,-20.74666 -20.666133,7.48666 -1.393733,-3.424"
     inkscape:connector-curvature="0" /><path
     id="path40"
     style="fill:#ffffff;fill-opacity:1;fill-rule:nonzero;stroke:none;stroke-width:0.13333333"
     d="m 54.885465,311.12801 5.614,9.436 0.7568,1.912 0.397867,0.876 0.239066,2.07066 v 1.11467 l -0.517733,2.708 -0.9952,2.14933 -0.637066,1.27467 -0.916134,1.0348 -2.030666,1.79173 -1.910934,1.3948 -1.792266,0.876 -0.4776,0.39734 -0.637467,0.11986 -1.791733,0.63747 -2.309334,0.75573 -2.548399,0.1604 -1.911467,-0.1604 -1.910933,-0.35826 -1.035467,-0.5172 -1.752,-1.15467 -1.274,-1.5136 -0.916133,-1.3932 -5.4552,-9.71613 23.811999,-13.896 -18.993733,15.28933 4.100934,7.2868 0.478133,0.75733 1.035467,0.9156 1.3932,0.4776 1.5532,0.27867 h 1.512933 l 2.707866,-0.75627 3.4244,-1.67293 3.185467,-2.30947 1.752133,-2.14933 0.796267,-1.55333 0.517733,-1.51334 0.119334,-0.756 -0.398534,-1.55333 -0.238533,-0.876 -0.278667,-0.916 -3.544266,-6.092 -18.117067,10.432 18.993733,-15.28933"
     inkscape:connector-curvature="0" /><path
     id="path42"
     style="fill:#ffffff;fill-opacity:1;fill-rule:nonzero;stroke:none;stroke-width:0.13333333"
     d="m 63.804665,361.21974 15.0516,-12.8624 2.547866,2.9468 -15.051466,12.98133 -0.995333,1.15467 -0.637067,0.99587 -0.278533,1.27333 v 1.15467 l 0.278533,1.79173 0.239067,0.75787 1.035466,1.67186 1.274,1.2744 0.5176,0.5172 1.6324,0.75627 0.5176,0.3984 1.274534,0.1204 h 1.154666 l 1.274,-0.27867 1.752133,-1.27506 15.171333,-12.86094 2.428667,2.90627 -15.0516,13.02027 -1.632266,1.15573 -0.916134,0.35733 -1.6324,0.39894 h -1.035333 l -1.752133,-0.11974 -1.7916,-0.39746 -1.6724,-0.876 -2.269867,-1.79214 -1.433333,-1.3948 -0.995867,-1.67186 -1.0348,-1.63187 -0.517733,-2.0708 -0.239067,-0.75733 v -1.91094 l 0.239067,-1.03586 0.636933,-1.9104 0.517734,-0.87614 1.393733,-1.91093"
     inkscape:connector-curvature="0" /><path
     id="path44"
     style="fill:#ffffff;fill-opacity:1;fill-rule:nonzero;stroke:none;stroke-width:0.13333333"
     d="m 81.643198,391.32241 18.3568,-20.78494 10.472402,9.39694 0.99533,1.03493 0.63693,1.15467 0.51774,1.3932 0.39786,1.27493 v 1.27453 l -0.39786,1.3932 -0.51774,1.43334 -0.75626,1.3932 -1.2744,1.1548 -1.15467,1.03586 -1.1548,0.4776 -1.39373,0.27867 h -1.51294 l -0.87613,-0.39733 0.23907,2.14946 -0.23907,1.91187 -0.51773,0.91627 -0.9156,1.51293 -2.906669,3.0656 -0.517733,0.75573 -0.398534,1.3948 0.119867,1.15467 -0.637467,0.5172 -3.185466,-2.9468 0.7964,-1.63174 3.822933,-4.58026 0.636929,-1.4328 0.23907,-1.5136 -0.517732,-1.63227 -0.876,-1.43333 -7.0084,-6.13173 -7.883867,8.91866 -2.588533,-2.50826 12.742266,-8.95987 7.167196,6.53067 0.23907,0.1204 0.75667,0.51706 0.7964,0.3584 1.11453,0.1588 1.39373,-0.27853 0.7964,-0.23867 0.99587,-0.63746 1.03493,-1.55307 0.23907,-0.35733 0.1192,-0.91614 v -1.5136 l -0.4776,-1.03586 -1.55307,-2.14894 -6.49013,-5.85373 -6.132266,6.848 -12.742266,8.95987"
     inkscape:connector-curvature="0" /><path
     id="path46"
     style="fill:#ffffff;fill-opacity:1;fill-rule:nonzero;stroke:none;stroke-width:0.13333333"
     d="m 109.55626,413.2224 14.53387,-23.69173 10.7112,6.37094 1.51333,1.63333 1.15467,1.9104 0.51733,2.19066 -0.11866,2.14947 -0.39867,1.15467 -1.27467,1.912 -0.23866,0.5172 -1.27467,0.876 -0.39733,0.15986 -1.39387,0.4776 -1.15467,0.27867 -0.7568,-0.12027 1.39374,1.8724 0.2792,1.03427 0.1192,2.15053 -0.3984,1.15467 -0.63694,1.27507 -0.7568,1.27346 -0.5172,0.7572 -1.03546,0.91574 -1.23427,0.75613 -0.7964,0.39853 -0.876,0.11867 -0.11987,0.1204 -2.42866,0.11973 -0.23907,-0.11973 h -0.9156 l -1.39373,-0.39893 -0.51774,-0.35734 -11.3484,-6.8896 4.9776,-1.27453 8.28227,5.09747 0.9156,0.11973 0.7568,0.1188 1.51307,-0.1188 1.39373,-0.7572 0.51773,-0.63707 0.63694,-0.876 0.39786,-1.43333 v -0.75627 l -0.1588,-0.75733 -0.23906,-0.75573 -0.35827,-0.91614 -1.03547,-1.11453 -7.88386,-4.85733 -4.73854,7.64373 -4.9776,1.27453 11.62707,-11.98493 6.60987,3.9428 0.39853,0.51707 0.75613,0.27866 0.87614,0.1188 h 0.876 l 0.67706,-0.1188 0.63694,-0.39893 1.274,-1.15467 0.63733,-1.15466 0.23867,-0.8756 V 401.636 l -0.23867,-0.91626 -0.15867,-0.876 -0.63746,-1.03587 -0.7568,-0.87613 -1.15467,-0.79573 -5.61467,-3.30534 -4.41973,7.4068 -11.62707,11.98493"
     inkscape:connector-curvature="0" /><path
     id="path48"
     style="fill:#ffffff;fill-opacity:1;fill-rule:nonzero;stroke:none;stroke-width:0.13333333"
     d="m 265.04933,47.448014 3.70266,-24.609333 -9.03866,-1.512 0.47733,-2.946666 21.54267,3.463999 -0.47867,3.065334 -8.56,-1.273334 -3.94267,24.448 -3.70266,-0.636"
     inkscape:connector-curvature="0" /><path
     id="path50"
     style="fill:#ffffff;fill-opacity:1;fill-rule:nonzero;stroke:none;stroke-width:0.13333333"
     d="m 229.76933,45.536014 0.35866,-27.793333 h 4.46 l 13.37867,22.816 0.39867,-22.418666 h 3.58266 l -0.39733,27.793332 h -4.22133 l -13.61734,-22.297333 -0.27866,21.9 h -3.664"
     inkscape:connector-curvature="0" /><path
     id="path52"
     style="fill:#ffffff;fill-opacity:1;fill-rule:nonzero;stroke:none;stroke-width:0.13333333"
     d="m 201.17999,47.72668 -3.78399,-27.554666 19.23333,-2.549333 0.35866,3.066667 -15.52933,2.030666 1.15467,8.918667 14.892,-2.030667 0.51733,3.185334 -14.772,1.911999 0.99467,9.437334 16.20666,-2.030667 0.35867,3.065333 -19.63067,2.549333"
     inkscape:connector-curvature="0" /><path
     id="path54"
     style="fill:#ffffff;fill-opacity:1;fill-rule:nonzero;stroke:none;stroke-width:0.13333333"
     d="m 167.692,56.128014 -7.884,-26.638666 5.336,-1.394667 14.016,20.149333 0.756,-24.608 5.216,-1.553333 7.924,26.519999 -3.70267,1.273334 -6.37067,-21.262666 -0.916,23.293332 -3.424,1.036 -13.49866,-18.754666 6.37066,20.904 -3.82266,1.036"
     inkscape:connector-curvature="0" /><path
     id="path56"
     style="fill:#ffffff;fill-opacity:1;fill-rule:nonzero;stroke:none;stroke-width:0.13333333"
     d="m 152.40133,61.981347 -10.592,-22.418666 -8.52133,3.942666 -1.43334,-2.788 19.90934,-9.197333 1.39333,2.668 -7.924,3.702667 10.592,22.418666 -3.424,1.672"
     inkscape:connector-curvature="0" /><path
     id="path58"
     style="fill:#ffffff;fill-opacity:1;fill-rule:nonzero;stroke:none;stroke-width:0.13333333"
     d="m 122.57706,78.30668 -14.93173,-23.453333 11.8656,-7.405333 1.55307,-0.876 1.87146,-0.398667 h 1.43334 l 1.6328,0.517333 2.5484,1.553334 1.15466,1.114666 0.99534,1.792 0.15933,0.756 0.11933,1.553334 v 0.876 l -0.11933,1.513333 -0.79627,1.433333 1.6724,0.12 1.9112,0.636 1.672,1.513334 1.39467,2.190666 1.672,2.666667 1.27467,0.876 0.51733,0.278666 h 0.756 l 0.63733,0.757334 -3.82266,2.548 -0.39867,-0.397334 -0.636,-0.637333 -3.94253,-5.336 -1.15467,-1.034667 L 130.7,60.945347 129.824,60.82668 h -0.87614 l -2.07026,0.637333 -7.8844,4.857334 6.60986,10.193333 -3.026,1.792 -5.0968,-14.773333 8.0036,-5.136 0.39787,-0.118667 0.51773,-0.638666 0.63747,-0.636 0.4776,-1.513334 v -1.912 l -0.23907,-0.796 -0.75613,-1.114666 -0.51773,-0.517334 -0.63707,-0.637333 -0.876,-0.398667 -1.03547,-0.118666 -0.9952,0.118666 -1.27453,0.278667 -1.43333,0.637333 -7.24694,4.698667 4.9772,7.804 5.0968,14.773333"
     inkscape:connector-curvature="0" /><path
     id="path60"
     style="fill:#ffffff;fill-opacity:1;fill-rule:nonzero;stroke:none;stroke-width:0.13333333"
     d="m 95.818798,99.569346 -9.715733,-27.911999 3.464133,-2.788 25.484402,15.051999 -3.186,2.668 -7.6448,-4.34 -8.162936,6.489333 3.066134,8.044 -3.3052,2.786667 -1.034934,-13.856 6.649466,-5.376 -10.472399,-6.490666 3.822933,11.866666 1.034934,13.856"
     inkscape:connector-curvature="0" /><path
     id="path62"
     style="fill:#ffffff;fill-opacity:1;fill-rule:nonzero;stroke:none;stroke-width:0.13333333"
     d="m 81.643198,115.37868 -21.5416,-17.840001 8.202534,-9.794666 1.393733,-1.394667 0.995333,-0.636 2.0308,-0.518666 h 1.035333 l 1.393734,0.12 2.0308,0.637333 1.552533,1.036 0.876133,0.756 1.2744,1.752 0.915734,2.030666 0.358266,1.154667 0.119334,1.154667 -0.238534,1.274666 -0.398533,1.393334 -0.876,1.034666 -6.131733,7.526671 9.197866,7.52533 -2.190133,2.788 -16.4052,-18.237334 6.968267,6.012004 6.012533,-7.286671 v -0.118666 l 0.119733,-1.513334 v -1.154666 l -0.239066,-0.916 -0.7964,-1.394667 -0.876,-0.994667 -0.636934,-0.12 -1.035466,-0.517333 -1.115067,-0.278667 -1.552666,0.398667 -0.637467,0.397333 -0.238533,0.24 -0.517734,0.517334 -5.4552,6.729333 16.4052,18.237334"
     inkscape:connector-curvature="0" /><path
     id="path64"
     style="fill:#ffffff;fill-opacity:1;fill-rule:nonzero;stroke:none;stroke-width:0.13333333"
     d="m 66.233332,136.40268 -24.3292,-13.1 9.1584,-16.964 2.827067,1.51333 -7.5256,13.65734 7.764666,4.30133 7.1276,-13.1 2.9464,1.672 -7.287066,12.98133 8.322399,4.46 7.6052,-14.01733 2.946933,1.27467 -9.556799,17.32133"
     inkscape:connector-curvature="0" /><path
     id="path66"
     style="fill:#ffffff;fill-opacity:1;fill-rule:nonzero;stroke:none;stroke-width:0.13333333"
     d="m 26.733333,152.60934 4.061466,-10.35333 0.7964,-1.23467 0.9952,-1.672 1.513067,-1.51333 1.433333,-0.916 1.393733,-0.63733 1.792267,-0.51734 1.910933,-0.35866 h 2.030667 l 2.150533,0.51733 2.309333,0.63733 4.46,2.27067 2.906667,2.548 1.274533,1.39333 1.034934,1.55334 0.3984,1.11466 0.358266,1.91067 v 1.912 l -0.637466,2.94667 -3.9416,10.31333 -26.240666,-9.91467 24.090132,5.216 3.066134,-7.64533 0.239066,-1.39333 v -0.79734 l -0.517733,-1.39333 -0.636933,-1.27467 -1.792267,-1.91066 -1.512933,-1.15467 -1.6324,-0.876 -3.583733,-1.27467 -2.0308,-0.35866 h -1.792134 l -1.910933,0.12 -1.5532,0.35866 -1.273867,0.796 -1.274533,1.11467 -0.876,1.55333 -2.548533,6.84934 19.630799,7.28666 -24.090132,-5.216"
     inkscape:connector-curvature="0" /><path
     id="path68"
     style="fill:#ffffff;fill-opacity:1;fill-rule:nonzero;stroke:none;stroke-width:0.13333333"
     d="m 32.467199,201.90401 0.7568,-3.424 0.756267,0.23867 h 1.273866 l 1.393734,-0.23867 1.035466,-0.51733 1.6724,-1.15467 0.7568,-0.996 0.636934,-1.03467 0.7568,-1.912 v -1.39333 l 0.1192,-1.15467 -0.1192,-1.912 -0.3984,-0.99466 -0.637067,-1.036 -0.7568,-0.756 -0.9952,-0.51734 -1.5532,-0.27866 h -0.517733 l -1.115067,0.51733 -1.552533,1.03467 -1.2344,1.792 -0.637067,1.63333 -2.588533,5.256 -0.9952,1.23333 -1.274,1.036 -1.154667,0.876 -1.393733,0.51734 h -1.911467 l -2.070933,-0.51734 -0.4776,-0.23866 -1.911466,-1.15467 -1.154667,-1.27467 -1.035333,-1.752 -0.238534,-1.27466 -0.119866,-2.18934 0.119866,-1.51333 0.238534,-1.912 0.119733,-0.51733 1.154667,-2.94667 1.6724,-2.428 1.513066,-1.39467 1.553067,-0.636 1.632266,-0.35866 1.911467,0.23866 0.915733,0.27867 -0.756266,3.424 -0.677067,-0.11867 -0.995333,-0.16 -1.035467,0.27867 -0.995333,0.51867 -0.796267,0.636 -0.7568,0.876 -0.756266,0.876 -0.518267,1.15466 -0.238533,1.792 -0.278667,2.30934 0.278667,1.27466 0.637066,0.876 0.5176,0.916 0.995333,0.63734 1.035467,0.47733 0.517733,0.16 0.4776,-0.16 1.035334,-0.47733 0.517733,-0.16 1.154667,-1.39334 1.513066,-2.42933 2.827067,-5.61333 0.876,-1.27467 1.5532,-1.51333 0.756266,-0.39867 2.030667,-0.756 0.7568,-0.35867 h 1.792133 l 1.910934,0.59734 0.995333,0.63733 1.433867,1.31467 1.115066,1.512 0.915734,1.67333 0.358266,1.91067 0.159334,2.15066 -0.159334,2.03067 -0.876,3.06533 -1.393733,2.788 -0.517733,0.796 -1.552667,1.39334 -1.752,1.15466 -1.035467,0.35867 -1.7916,0.51733 h -1.274533 l -2.15,-0.51733"
     inkscape:connector-curvature="0" /><path
     id="path70"
     style="fill:#ffffff;fill-opacity:1;fill-rule:nonzero;stroke:none;stroke-width:0.13333333"
     d="m 45.447866,181.63601 -3.9416,-1.11467 0.9156,-4.10133 4.1808,1.036 -1.1548,4.18"
     inkscape:connector-curvature="0" /><path
     id="path72"
     style="fill:#ffffff;fill-opacity:1;fill-rule:nonzero;stroke:none;stroke-width:0.13333333"
     d="m 39.475066,214.16801 -4.340134,-0.39733 0.397867,-4.06134 4.1812,0.35734 -0.238933,4.10133"
     inkscape:connector-curvature="0" /><path
     id="path74"
     style="fill:#ffffff;fill-opacity:1;fill-rule:nonzero;stroke:none;stroke-width:0.13333333"
     d="m 30.794799,236.06934 -19.591159,-1.15466 0.1198,-3.94267 21.143759,1.27467 1.274,-0.51734 1.154667,-0.63733 0.7568,-0.876 0.756666,-0.876 0.5172,-1.15467 0.518267,-1.156 0.1192,-2.03066 v -1.15467 l -0.5176,-1.27333 -0.398533,-1.27467 -0.636934,-0.916 -0.995333,-0.756 -1.035333,-0.63733 -2.0308,-0.63734 -19.749986,-1.15466 0.119266,-3.94134 19.790053,1.27334 1.1152,0.12 1.7916,0.51733 0.876133,0.51733 1.273867,0.996 0.517733,0.63734 1.274534,1.672 0.397866,0.756 0.636934,1.792 0.3584,1.036 0.119733,1.91066 -0.119733,2.788 -0.876,2.82667 -0.278667,0.876 -1.6324,2.30933 -1.553067,1.27467 -0.995333,0.63733 -1.911466,0.756 -2.309334,0.12"
     inkscape:connector-curvature="0" /><path
     id="path76"
     style="fill:#ffffff;fill-opacity:1;fill-rule:nonzero;stroke:none;stroke-width:0.13333333"
     d="m 133.1292,426.72134 20.14813,-21.7812 4.22133,1.7916 -1.792,29.6656 -3.704,-1.79214 0.39867,-8.52133 -9.556,-3.9412 -5.73467,6.13187 -3.98146,-1.5532 11.7468,-7.4068 7.64533,3.34533 1.03467,-12.22387 -8.68,8.87854 -11.7468,7.4068"
     inkscape:connector-curvature="0" /><path
     id="path78"
     style="fill:#ffffff;fill-opacity:1;fill-rule:nonzero;stroke:none;stroke-width:0.13333333"
     d="m 160.564,437.67187 7.48666,-26.75827 4.34,1.15467 7.16667,25.36347 5.97333,-21.66094 3.584,0.99587 -7.56533,26.7984 -3.90267,-1.03587 -7.68533,-25.24533 -5.972,21.42293 -3.42533,-1.03493"
     inkscape:connector-curvature="0" /><path
     id="path80"
     style="fill:#ffffff;fill-opacity:1;fill-rule:nonzero;stroke:none;stroke-width:0.13333333"
     d="m 209.62133,420.74787 11.06933,0.24013 1.39333,0.27867 1.912,0.47707 2.30934,1.43333 1.672,1.39373 1.15466,1.51307 0.996,2.19067 0.63734,1.752 0.27866,1.55213 0.11867,3.02653 -0.27867,3.06667 -0.756,3.22547 -0.63733,1.63186 -0.876,1.79214 -0.63733,1.0344 -1.39334,1.27493 -1.036,0.75573 -1.552,0.75734 -2.788,0.75626 h -1.552 l -11.07066,-0.35733 1.036,-27.7948 2.548,24.21093 9.27733,0.5172 1.27467,-0.5172 1.27466,-0.876 0.916,-1.03586 0.756,-1.5136 0.756,-1.67187 0.39867,-1.79213 0.23867,-3.0652 V 433.212 l -0.35734,-2.0308 -0.39866,-1.63333 -0.75734,-1.79213 -0.91466,-1.27294 -1.27467,-1.15466 -1.39333,-0.75734 -1.67334,-0.23906 -7.24666,-0.27867 -0.876,20.90573 -2.548,-24.21093"
     inkscape:connector-curvature="0" /><path
     id="path82"
     style="fill:#ffffff;fill-opacity:1;fill-rule:nonzero;stroke:none;stroke-width:0.13333333"
     d="m 241.47599,449.2984 -2.30933,-27.6744 19.272,-1.512 0.23867,2.9068 -15.688,1.15467 0.916,9.03853 14.892,-1.11466 0.27866,3.30426 -15.052,1.15414 0.876,9.3188 16.08667,-1.31467 0.35867,3.2256 -19.86934,1.51293"
     inkscape:connector-curvature="0" /><path
     id="path84"
     style="fill:#ffffff;fill-opacity:1;fill-rule:nonzero;stroke:none;stroke-width:0.13333333"
     d="m 304.54933,438.46827 -10.592,-25.76307 17.6,-7.36666 1.15466,2.9068 -14.25466,5.85306 3.424,8.2828 13.77733,-5.73426 1.27467,3.06666 -13.89734,5.61454 3.584,8.64013 14.892,-6.21253 1.39334,3.18693 -18.356,7.5256"
     inkscape:connector-curvature="0" /><path
     id="path86"
     style="fill:#ffffff;fill-opacity:1;fill-rule:nonzero;stroke:none;stroke-width:0.13333333"
     d="m 425.63866,343.77867 -24.848,-12.74133 8.8,-16.964 2.54933,1.39467 -7.048,13.77733 7.924,4.18013 6.72933,-13.3788 3.22534,1.43334 -6.88934,13.37986 8.16267,4.06147 7.36667,-14.136 2.94666,1.27467 -8.91866,17.71866"
     inkscape:connector-curvature="0" /><path
     id="path88"
     style="fill:#ffffff;fill-opacity:1;fill-rule:nonzero;stroke:none;stroke-width:0.13333333"
     d="m 333.61732,426.24374 -12.34399,-24.76774 3.424,-1.75199 10.95066,21.89999 11.98533,-5.97186 1.51334,3.02493 -15.52934,7.56667"
     inkscape:connector-curvature="0" /><path
     id="path90"
     style="fill:#ffffff;fill-opacity:1;fill-rule:nonzero;stroke:none;stroke-width:0.13333333"
     d="m 342.13866,403.78547 -0.47867,-1.03493 -0.51733,-1.11454 -0.51734,-1.67346 -0.23866,-1.15467 -0.16,-3.18493 0.16,-1.79227 0.47733,-1.2348 0.796,-1.79066 0.63733,-1.27454 1.23467,-1.67186 1.15467,-1.0364 1.792,-1.51307 2.03066,-0.876 0.51734,-0.39733 0.63733,-0.11987 0.39867,-0.27867 3.06533,-0.63746 2.548,0.3984 1.27467,0.1188 1.27466,0.39893 1.91067,0.99587 1.752,1.43333 1.27467,0.9948 2.42933,2.94627 1.79067,3.82293 0.51866,1.3948 0.23867,2.66667 v 1.15573 l -0.23867,2.14946 -0.27866,1.27454 -1.116,2.42973 -0.91467,1.2728 -0.996,1.1548 -1.15467,1.15467 -2.03066,1.51346 -0.51734,0.39854 -2.15066,0.91613 -1.912,0.4776 -1.27334,0.11973 -2.548,-0.11973 -2.708,-0.75627 -1.792,-0.876 -2.15066,-1.67346 -1.15467,-1.15467 -2.03067,-2.4276 -1.03466,-1.3948 4.10133,-0.51773 0.11867,0.39893 1.672,1.67187 2.032,1.75213 1.27333,0.63747 1.27467,0.5172 2.548,0.5172 1.51333,-0.1188 1.792,-0.3984 1.15467,-0.63747 1.632,-1.1548 1.15466,-0.876 0.51867,-0.87547 0.756,-1.3136 0.75733,-2.66826 v -0.99573 l -0.12,-1.9104 -0.23866,-1.1548 -1.39467,-3.42547 -1.27333,-2.1896 -0.916,-1.15467 -1.39334,-0.99586 -0.996,-0.91614 -2.07066,-0.99426 -1.39334,-0.27867 h -1.912 l -2.14933,0.27867 -0.51733,0.11826 -1.792,1.0364 -1.792,1.3932 -1.27467,1.79174 -0.63733,1.27346 -0.51734,1.3948 v 0.876 l -0.23866,1.79214 0.23866,1.63186 0.27867,1.15467 0.75733,2.03066 1.15467,1.79174 -4.10133,0.51773"
     inkscape:connector-curvature="0" /><path
     id="path92"
     style="fill:#ffffff;fill-opacity:1;fill-rule:nonzero;stroke:none;stroke-width:0.13333333"
     d="m 278.42799,444.83854 -15.52933,-25.12494 3.70267,-0.87613 12.74266,21.26253 2.78667,-24.44786 3.82267,-0.91614 -3.70267,29.1864 -3.82267,0.91614"
     inkscape:connector-curvature="0" /><path
     id="path94"
     style="fill:#ffffff;fill-opacity:1;fill-rule:nonzero;stroke:none;stroke-width:0.13333333"
     d="m 381.04132,394.98547 -18.35733,-21.024 9.676,-8.4016 0.12,-0.11973 1.43333,-0.91613 0.59734,-0.23854 1.27466,-0.51773 h 1.792 l 2.03067,0.63747 1.27333,0.5172 1.912,1.5136 1.03467,1.552 0.876,1.63333 0.51867,1.5532 0.11866,1.27333 -0.11866,0.99587 -0.24,1.15467 -0.636,1.43333 -1.27467,1.39373 -7.128,6.212 7.76533,9.07867 -2.668,2.26933 -13.14,-20.5068 6.012,7.00774 6.968,-6.0916 v -0.27867 l 0.51867,-1.39373 v -2.19067 l -0.51867,-1.3932 -0.876,-1.27453 -1.512,-0.876 -1.036,-0.27867 h -1.03466 l -1.63334,0.5188 -0.63733,0.5172 -6.25067,5.73333 13.14,20.5068"
     inkscape:connector-curvature="0" /><path
     id="path96"
     style="fill:#ffffff;fill-opacity:1;fill-rule:nonzero;stroke:none;stroke-width:0.13333333"
     d="m 400.15466,374.99587 -21.304,-17.83853 3.42533,-4.1016 22.816,9.04013 -12.86133,-21.02506 3.464,-3.9416 21.38266,17.83906 -2.548,2.82654 -17.04266,-14.17507 12.224,19.90947 -2.30934,2.9068 -21.54266,-8.2428 16.844,13.85733 -2.548,2.94533"
     inkscape:connector-curvature="0" /><path
     id="path98"
     style="fill:#ffffff;fill-opacity:1;fill-rule:nonzero;stroke:none;stroke-width:0.13333333"
     d="m 440.17199,315.74667 -26.51867,-8.68133 1.39334,-4.06133 25.484,-6.25067 -21.264,-7.00933 1.116,-3.464 26.51866,8.68133 -1.39333,3.94133 -25.36533,6.49067 21.144,6.88933 -1.11467,3.464"
     inkscape:connector-curvature="0" /><path
     id="path100"
     style="fill:#ffffff;fill-opacity:1;fill-rule:nonzero;stroke:none;stroke-width:0.13333333"
     d="m 451.36132,278.27734 -24.44933,-5.13733 -1.91067,9.07866 -2.94666,-0.63733 4.46,-21.30266 2.94666,0.51733 -1.792,8.52133 24.488,4.97733 -0.796,3.98267"
     inkscape:connector-curvature="0" /><path
     id="path102"
     style="fill:#ffffff;fill-opacity:1;fill-rule:nonzero;stroke:none;stroke-width:0.13333333"
     d="M 154.83066,364.92241 H 169.484 V 245.78534 h -14.65334 v 119.13707"
     inkscape:connector-curvature="0" /><path
     id="path104"
     style="fill:#ffffff;fill-opacity:1;fill-rule:nonzero;stroke:none;stroke-width:0.13333333"
     d="M 175.97466,372.44787 H 190.508 V 229.06134 h -14.53334 v 143.38653"
     inkscape:connector-curvature="0" /><path
     id="path106"
     style="fill:#ffffff;fill-opacity:1;fill-rule:nonzero;stroke:none;stroke-width:0.13333333"
     d="m 196.76,373.32401 h 14.65333 v -161.584 H 196.76 v 161.584"
     inkscape:connector-curvature="0" /><path
     id="path108"
     style="fill:#ffffff;fill-opacity:1;fill-rule:nonzero;stroke:none;stroke-width:0.13333333"
     d="m 218.26133,372.20934 h 14.69333 V 252.11601 h -14.69333 v 120.09333"
     inkscape:connector-curvature="0" /><path
     id="path110"
     style="fill:#ffffff;fill-opacity:1;fill-rule:nonzero;stroke:none;stroke-width:0.13333333"
     d="m 238.92799,372.20934 h 14.37467 V 252.11601 h -14.37467 v 120.09333"
     inkscape:connector-curvature="0" /><path
     id="path112"
     style="fill:#ffffff;fill-opacity:1;fill-rule:nonzero;stroke:none;stroke-width:0.13333333"
     d="m 259.95199,372.44787 h 14.65334 V 210.34668 h -14.65334 v 162.10119"
     inkscape:connector-curvature="0" /><path
     id="path114"
     style="fill:#ffffff;fill-opacity:1;fill-rule:nonzero;stroke:none;stroke-width:0.13333333"
     d="m 281.49333,372.44787 h 14.65466 V 229.06134 h -14.65466 v 143.38653"
     inkscape:connector-curvature="0" /><path
     id="path116"
     style="fill:#ffffff;fill-opacity:1;fill-rule:nonzero;stroke:none;stroke-width:0.13333333"
     d="m 302.39866,364.80267 h 14.65333 V 245.62534 h -14.65333 v 119.17733"
     inkscape:connector-curvature="0" /><path
     id="path118"
     style="fill:#ffffff;fill-opacity:1;fill-rule:nonzero;stroke:none;stroke-width:0.13333333"
     d="M 154.03333,122.50535 V 240.40934 H 168.448 V 111.55468 l -14.41467,10.95067"
     inkscape:connector-curvature="0" /><path
     id="path120"
     style="fill:#ffffff;fill-opacity:1;fill-rule:nonzero;stroke:none;stroke-width:0.13333333"
     d="m 175.456,107.49335 v 115.07733 h 14.41466 V 96.504013 L 175.456,107.49335"
     inkscape:connector-curvature="0" /><path
     id="path122"
     style="fill:#ffffff;fill-opacity:1;fill-rule:nonzero;stroke:none;stroke-width:0.13333333"
     d="M 196.76,92.322679 V 204.45334 h 14.65333 V 81.373346 L 196.76,92.322679"
     inkscape:connector-curvature="0" /><path
     id="path124"
     style="fill:#ffffff;fill-opacity:1;fill-rule:nonzero;stroke:none;stroke-width:0.13333333"
     d="M 274.72533,93.716013 V 204.73201 H 259.95199 V 82.76668 l 14.77334,10.949333"
     inkscape:connector-curvature="0" /><path
     id="path126"
     style="fill:#ffffff;fill-opacity:1;fill-rule:nonzero;stroke:none;stroke-width:0.13333333"
     d="M 295.62933,107.61335 V 222.68934 H 281.09599 V 96.662679 l 14.53334,10.950671"
     inkscape:connector-curvature="0" /><path
     id="path128"
     style="fill:#ffffff;fill-opacity:1;fill-rule:nonzero;stroke:none;stroke-width:0.13333333"
     d="m 317.05199,123.42135 v 117.62533 h -14.53333 v -128.456 l 14.53333,10.83067"
     inkscape:connector-curvature="0" /><path
     id="path130"
     style="fill:#ffffff;fill-opacity:1;fill-rule:nonzero;stroke:none;stroke-width:0.13333333"
     d="m 221.72666,147.98934 h 8.28133 l -11.468,12.78267 v 83.69867 h 33.24934 v -88.15867 l -8.64134,-13.89733 -0.636,-1.15467 -0.916,-1.39333 -1.15466,-1.39334 -1.27467,-0.916 -1.51333,-0.63733 -0.916,-0.51733 -1.51334,-0.23867 -1.632,-0.12 -1.672,0.12 -1.27466,0.11867 -1.672,0.63733 -1.39334,0.75733 -1.51333,1.15467 -1.792,1.672 -0.75733,1.27467 -0.796,1.39333 -0.47734,1.51333 -0.39866,1.39334 -0.11867,1.91066"
     inkscape:connector-curvature="0" /><path
     id="path132"
     style="fill:#ffffff;fill-opacity:1;fill-rule:nonzero;stroke:none;stroke-width:0.13333333"
     d="m 91.358798,252.75334 5.336,-16.684 -13.4984,-10.31333 h 16.8036 l 4.857862,-14.892 5.0968,14.892 h 16.92294 l -13.3792,10.31333 4.9776,16.32534 -13.61814,-9.95467 -13.499062,10.31333"
     inkscape:connector-curvature="0" /><path
     id="path134"
     style="fill:#ffffff;fill-opacity:1;fill-rule:nonzero;stroke:none;stroke-width:0.13333333"
     d="m 350.93866,253.90801 5.49466,-16.684 -13.61866,-10.19467 h 16.804 l 4.81866,-15.05066 4.97734,15.05066 h 17.20133 l -13.49867,10.19467 4.97734,16.16667 -13.65734,-9.796 -13.49866,10.31333"
     inkscape:connector-curvature="0" /></svg>