<?xml version="1.0" encoding="UTF-8" standalone="no"?>
<svg
   xmlns:dc="http://purl.org/dc/elements/1.1/"
   xmlns:cc="http://creativecommons.org/ns#"
   xmlns:rdf="http://www.w3.org/1999/02/22-rdf-syntax-ns#"
   xmlns:svg="http://www.w3.org/2000/svg"
   xmlns="http://www.w3.org/2000/svg"
   xmlns:sodipodi="http://sodipodi.sourceforge.net/DTD/sodipodi-0.dtd"
   xmlns:inkscape="http://www.inkscape.org/namespaces/inkscape"
   viewBox="0 0 202.46148 72.866401"
   height="72.866402"
   width="202.46149"
   xml:space="preserve"
   id="svg2"
   version="1.1"
   sodipodi:docname="Nike.svg"
   inkscape:version="0.92.3 (2405546, 2018-03-11)"><sodipodi:namedview
     pagecolor="#ffffff"
     bordercolor="#666666"
     borderopacity="1"
     objecttolerance="10"
     gridtolerance="10"
     guidetolerance="10"
     inkscape:pageopacity="0"
     inkscape:pageshadow="2"
     inkscape:window-width="1920"
     inkscape:window-height="1001"
     id="namedview301"
     showgrid="false"
     inkscape:pagecheckerboard="true"
     fit-margin-top="0"
     fit-margin-left="0"
     fit-margin-right="0"
     fit-margin-bottom="0"
     inkscape:zoom="2.0033105"
     inkscape:cx="97.450308"
     inkscape:cy="-9.2715918"
     inkscape:window-x="-9"
     inkscape:window-y="-9"
     inkscape:window-maximized="1"
     inkscape:current-layer="svg2" /><metadata
     id="metadata8"><rdf:RDF><cc:Work
         rdf:about=""><dc:format>image/svg+xml</dc:format><dc:type
           rdf:resource="http://purl.org/dc/dcmitype/StillImage" /><dc:title /></cc:Work></rdf:RDF></metadata><defs
     id="defs6" /><path
     id="path162"
     style="fill:#ffffff;fill-opacity:1;fill-rule:evenodd;stroke:none;stroke-width:0.13333333"
     d="M 25.935645,3.2317041 C 12.760975,18.70238 0.12897504,37.89037 9.7504066e-4,52.23037 -0.04702496,57.62637 1.674315,62.33704 5.806315,65.90771 c 5.948,5.13466 12.49866,6.948 19.01866,6.95866 9.528,0.012 18.98934,-3.83066 26.39734,-6.79466 12.476,-4.98934 150.385335,-64.8786729 150.385335,-64.8786729 1.332,-0.66533299 1.08133,-1.49733299 -0.58267,-1.08133299 -0.672,0.168 -150.137335,40.67333589 -150.137335,40.67333589 -2.884,0.81067 -5.83067,1.22933 -8.69867,1.24533 -11.48666,0.0667 -21.708,-6.308 -21.62533,-19.74399 0.0333,-5.25867 1.64267,-11.59734 5.372,-19.0546759 v 0"
     inkscape:connector-curvature="0" /></svg>