<?xml version="1.0" encoding="UTF-8" standalone="no"?>
<!-- Created with Inkscape (http://www.inkscape.org/) -->

<svg
   xmlns:dc="http://purl.org/dc/elements/1.1/"
   xmlns:cc="http://creativecommons.org/ns#"
   xmlns:rdf="http://www.w3.org/1999/02/22-rdf-syntax-ns#"
   xmlns:svg="http://www.w3.org/2000/svg"
   xmlns="http://www.w3.org/2000/svg"
   xmlns:sodipodi="http://sodipodi.sourceforge.net/DTD/sodipodi-0.dtd"
   xmlns:inkscape="http://www.inkscape.org/namespaces/inkscape"
   version="1.1"
   id="svg10"
   xml:space="preserve"
   width="288.70972"
   height="81.531998"
   viewBox="0 0 288.70972 81.531998"
   sodipodi:docname="Xerox_temp.svg"
   inkscape:version="0.92.3 (2405546, 2018-03-11)"><metadata
     id="metadata16"><rdf:RDF><cc:Work
         rdf:about=""><dc:format>image/svg+xml</dc:format><dc:type
           rdf:resource="http://purl.org/dc/dcmitype/StillImage" /><dc:title></dc:title></cc:Work></rdf:RDF></metadata><defs
     id="defs14"><clipPath
       clipPathUnits="userSpaceOnUse"
       id="clipPath26"><path
         d="M 0,216 H 288 V 0 H 0 Z"
         id="path24"
         inkscape:connector-curvature="0" /></clipPath></defs><sodipodi:namedview
     pagecolor="#ffffff"
     bordercolor="#666666"
     borderopacity="1"
     objecttolerance="10"
     gridtolerance="10"
     guidetolerance="10"
     inkscape:pageopacity="0"
     inkscape:pageshadow="2"
     inkscape:window-width="2560"
     inkscape:window-height="1377"
     id="namedview12"
     showgrid="false"
     inkscape:pagecheckerboard="true"
     fit-margin-top="0"
     fit-margin-left="0"
     fit-margin-right="0"
     fit-margin-bottom="0"
     inkscape:zoom="5.5542097"
     inkscape:cx="117.74291"
     inkscape:cy="39.5"
     inkscape:window-x="-8"
     inkscape:window-y="859"
     inkscape:window-maximized="1"
     inkscape:current-layer="g18" /><g
     inkscape:groupmode="layer"
     id="layer1"
     inkscape:label="sphere"
     style="display:inline"><g
       id="g28"
       transform="matrix(1.3333333,0,0,-1.3333333,288.70972,40.765337)"
       style="fill:#ffffff;fill-opacity:1"><path
         d="m 0,0 c 0,-16.887 -13.688,-30.575 -30.574,-30.575 -16.887,0 -30.575,13.688 -30.575,30.575 0,16.886 13.688,30.574 30.575,30.574 C -13.688,30.574 0,16.886 0,0"
         style="fill:#ffffff;fill-opacity:1;fill-rule:nonzero;stroke:none"
         id="path30"
         inkscape:connector-curvature="0" /></g></g><g
     id="g18"
     inkscape:groupmode="layer"
     inkscape:label="xerox_new_bw"
     transform="matrix(1.3333333,0,0,-1.3333333,-48.117076,183.5772)"><g
       id="g32"
       transform="translate(249.6865,94.0605)"
       style="fill:#3e4554;fill-opacity:1"><path
         d="m 0,0 c -0.026,6.198 -2.802,12.385 -7.126,17.814 1.252,7.642 0.423,14.056 -0.817,18.639 -3.091,2.607 -6.706,4.613 -10.664,5.837 1.942,-4.039 2.138,-9.332 1.344,-14.998 -3.134,2.175 -6.314,3.875 -10.613,5.51 -8.878,3.376 -16.7,2.958 -22.168,1.078 -3.24,-3.486 -5.679,-7.73 -7.016,-12.438 9.723,4.524 23.665,-0.394 35.027,-8.838 -8.442,-18.824 -17.315,-24.239 -22.42,-25.074 3.409,-2.248 7.296,-3.833 11.476,-4.568 9.329,2.633 16.087,10.053 21.066,19.892 4.194,-4.541 5.528,-8.53 5.454,-11.824 C -3.796,-6.41 -1.599,-3.374 0,0"
         style="fill:#3e4554;fill-opacity:1;fill-rule:nonzero;stroke:none"
         id="path34"
         inkscape:connector-curvature="0" /></g><g
       id="g36"
       transform="translate(115.3403,123.0781)"
       style="fill:#ffffff"><path
         d="m 0,0 c -1.041,0.202 -2.735,0.276 -4.167,0.276 -1.432,0 -5.99,0.347 -9.68,-2.865 -3.69,-3.212 -2.994,-9.073 -2.994,-9.073 v -16.06 c 0,0 -0.132,-1.867 1.387,-1.867 h 4.602 c 1.519,0 1.39,1.867 1.39,1.867 v 14.802 c 0,4.383 0.221,5.27 1.822,6.598 1.715,1.421 5.944,0.942 7.076,0.869 0.608,-0.04 0.823,0.831 0.823,0.831 0,0 0.449,2.064 0.558,3.013 C 0.943,-0.526 1.043,-0.202 0,0"
         style="fill:#ffffff;fill-opacity:1;fill-rule:nonzero;stroke:none"
         id="path38"
         inkscape:connector-curvature="0" /></g><g
       id="g40"
       transform="translate(130.8491,123.2495)"
       style="fill:#ffffff"><path
         d="m 0,0 c -8.885,0 -14.963,-6.722 -14.963,-15.016 0,-8.292 6.078,-15.015 14.963,-15.015 8.886,0 14.963,6.723 14.963,15.015 C 14.963,-6.722 8.886,0 0,0 m 7.096,-14.663 c 0,-3.932 -1.218,-9.869 -7.096,-9.869 -5.877,0 -7.095,5.937 -7.095,9.869 0,3.933 1.218,9.165 7.095,9.165 5.878,0 7.096,-5.232 7.096,-9.165"
         style="fill:#ffffff;fill-opacity:1;fill-rule:nonzero;stroke:none"
         id="path42"
         inkscape:connector-curvature="0" /></g><g
       id="g44"
       transform="translate(63.8994,94.7246)"
       style="fill:#ffffff"><path
         d="m 0,0 c 0,0 -0.675,2.643 -4.319,7.912 -2.089,3.018 -3.938,4.958 -5.219,6.118 1.282,1.084 3.023,2.798 4.626,5.17 3.013,4.459 3.979,7.117 4.208,7.703 0.23,0.586 0.36,1.451 -0.688,1.451 H -6.62 c 0,0 -0.462,0.012 -0.643,-0.449 -0.065,-0.166 -0.126,-0.26 -0.293,-0.644 -0.571,-1.314 -3.412,-6.245 -5.796,-8.872 -2.586,2.664 -5.246,8.624 -5.544,9.238 -0.364,0.748 -0.834,0.727 -0.834,0.727 h -6.501 c -1.005,0 -0.577,-1.284 -0.577,-1.284 0,0 0.67,-2.708 4.132,-8.099 1.561,-2.428 2.982,-4.283 4.114,-5.627 -1.318,-1.035 -3.253,-2.811 -4.991,-5.4 -2.994,-4.459 -3.873,-7.192 -4.1,-7.778 -0.228,-0.585 -0.358,-1.45 0.683,-1.45 h 5.417 c 0,0 0.45,0.04 0.614,0.395 0.073,0.162 0.15,0.314 0.315,0.698 0.63,1.456 3.853,7.355 6.298,9.636 2.826,-2.013 6.081,-9.318 6.413,-10.002 0.364,-0.749 0.835,-0.727 0.835,-0.727 h 6.5 C 0.427,-1.284 0,0 0,0"
         style="fill:#ffffff;fill-opacity:1;fill-rule:nonzero;stroke:none"
         id="path46"
         inkscape:connector-curvature="0" /></g><g
       id="g48"
       transform="translate(174.3174,94.7246)"
       style="fill:#ffffff"><path
         d="m 0,0 c 0,0 -0.676,2.643 -4.32,7.912 -2.087,3.018 -3.937,4.958 -5.219,6.118 1.283,1.084 3.025,2.798 4.627,5.17 3.014,4.459 3.979,7.117 4.208,7.703 0.23,0.586 0.361,1.451 -0.687,1.451 h -5.228 c 0,0 -0.462,0.012 -0.643,-0.449 -0.065,-0.166 -0.128,-0.26 -0.293,-0.644 -0.572,-1.314 -3.414,-6.245 -5.797,-8.872 -2.586,2.664 -5.246,8.624 -5.544,9.238 -0.364,0.748 -0.834,0.727 -0.834,0.727 h -6.499 c -1.006,0 -0.58,-1.284 -0.58,-1.284 0,0 0.67,-2.708 4.134,-8.099 1.56,-2.428 2.981,-4.283 4.112,-5.627 -1.317,-1.035 -3.251,-2.811 -4.989,-5.4 -2.995,-4.459 -3.873,-7.192 -4.1,-7.778 -0.228,-0.585 -0.359,-1.45 0.683,-1.45 h 5.416 c 0,0 0.45,0.04 0.614,0.395 0.075,0.162 0.15,0.314 0.316,0.698 0.63,1.456 3.853,7.355 6.297,9.636 2.826,-2.013 6.082,-9.318 6.414,-10.002 0.363,-0.749 0.835,-0.727 0.835,-0.727 h 6.5 C 0.429,-1.284 0,0 0,0"
         style="fill:#ffffff;fill-opacity:1;fill-rule:nonzero;stroke:none"
         id="path50"
         inkscape:connector-curvature="0" /></g><g
       id="g52"
       transform="translate(72.9258,111.0479)"
       style="fill:#ffffff"><path
         d="m 0,0 h 13.405 c 0,0 0.216,7.117 -6.467,6.684 C 0.253,6.25 0,0 0,0 m 18.344,-15.19 c -2.761,-1.928 -7.89,-2.71 -11.668,-2.71 -7.811,0 -14.429,5.886 -14.429,14.638 0,7.809 5.678,15.47 14.143,15.47 10.964,0 14.142,-6.928 14.142,-15.47 0,0 -0.052,-1.979 -0.886,-1.979 H 0.061 c 0,0 0.114,-3.147 2.344,-4.897 1.859,-1.461 3.954,-2.396 7.813,-2.031 3.367,0.318 6.077,2.196 6.077,2.196 0,0 0.851,0.617 1.372,-0.633 0.521,-1.25 1.198,-3.075 1.198,-3.075 0,0 0.487,-0.806 -0.521,-1.509"
         style="fill:#ffffff;fill-opacity:1;fill-rule:nonzero;stroke:none"
         id="path54"
         inkscape:connector-curvature="0" /></g><g
       id="g232"
       style="fill:#ffffff"><g
         transform="translate(238.6895,105.2861)"
         id="g56"
         style="fill:#ffffff"><path
           inkscape:connector-curvature="0"
           id="path58"
           style="fill:#ffffff;fill-opacity:1;fill-rule:nonzero;stroke:none"
           d="m 0,0 c 3.885,10.89 3.406,20.982 0.746,26.993 -0.38,0.264 -0.767,0.52 -1.16,0.766 2.759,-5.93 3.085,-16.204 -0.899,-27.373 -6.694,-18.767 -16.66,-25.507 -24.768,-27.626 0.43,-0.141 0.863,-0.271 1.3,-0.391 C -16.113,-25.628 -6.697,-18.777 0,0" /></g><g
         transform="translate(235.8418,107.3696)"
         id="g60"
         style="fill:#ffffff"><path
           inkscape:connector-curvature="0"
           id="path62"
           style="fill:#ffffff;fill-opacity:1;fill-rule:nonzero;stroke:none"
           d="M 0,0 C 3.989,11.073 3.511,20.911 0.681,26.698 0.307,26.899 -0.07,27.093 -0.452,27.278 2.495,21.555 2.366,10.207 -1.303,0.266 -8.048,-18.007 -18.435,-26.232 -26.2,-28.188 c 0.294,-0.133 0.592,-0.259 0.888,-0.379 C -17.485,-27.137 -7.127,-19.783 0,0" /></g><g
         transform="translate(232.8379,110.0898)"
         id="g64"
         style="fill:#ffffff"><path
           inkscape:connector-curvature="0"
           id="path66"
           style="fill:#ffffff;fill-opacity:1;fill-rule:nonzero;stroke:none"
           d="m 0,0 c 4.847,13.837 2.848,21.656 1.1,25.218 -0.363,0.153 -0.728,0.298 -1.096,0.435 2.362,-4.849 3.707,-15.121 -3.285,-30.684 -7.832,-17.433 -17.772,-23.809 -22.345,-24.666 0.269,-0.15 0.539,-0.297 0.813,-0.439 C -16.432,-28.826 -5.789,-16.529 0,0" /></g><g
         transform="translate(228.4082,119.0864)"
         id="g68"
         style="fill:#ffffff"><path
           inkscape:connector-curvature="0"
           id="path70"
           style="fill:#ffffff;fill-opacity:1;fill-rule:nonzero;stroke:none"
           d="m 0,0 c 10.883,-6.356 18.808,-16.446 19.747,-27.864 0.219,0.356 0.427,0.718 0.629,1.084 C 19.514,-15.279 11.558,-5.109 0.612,1.284 -10.274,7.643 -21.662,10.59 -30.516,6.798 -30.896,6.311 -31.261,5.81 -31.611,5.3 -22.69,9.413 -11.085,6.474 0,0" /></g><g
         transform="translate(226.8516,115.3975)"
         id="g72"
         style="fill:#ffffff"><path
           inkscape:connector-curvature="0"
           id="path74"
           style="fill:#ffffff;fill-opacity:1;fill-rule:nonzero;stroke:none"
           d="m 0,0 c 11.523,-7.093 18.643,-16.3 19.523,-26.777 0.277,0.364 0.545,0.732 0.806,1.108 C 19.165,-14.501 11.321,-4.656 0.64,1.609 -10.964,8.414 -22.579,11.205 -31.472,6.708 -31.718,6.271 -31.953,5.828 -32.179,5.377 -23.29,10.016 -11.672,7.188 0,0" /></g><g
         transform="translate(225.751,113.2578)"
         id="g76"
         style="fill:#ffffff"><path
           inkscape:connector-curvature="0"
           id="path78"
           style="fill:#ffffff;fill-opacity:1;fill-rule:nonzero;stroke:none"
           d="m 0,0 c -11.599,7.14 -23.143,9.979 -32.009,5.463 -0.188,-0.46 -0.368,-0.927 -0.535,-1.397 8.865,4.502 20.402,1.662 31.993,-5.474 11.012,-6.78 18,-15.487 19.367,-25.388 0.216,0.235 0.429,0.473 0.638,0.716 C 18.323,-15.893 11.268,-6.938 0,0" /></g></g></g></svg>