<?xml version="1.0" encoding="UTF-8" standalone="no"?>
<!-- Generator: Adobe Illustrator 14.0.0, SVG Export Plug-In . SVG Version: 6.00 Build 43363)  -->

<svg
   xmlns:dc="http://purl.org/dc/elements/1.1/"
   xmlns:cc="http://creativecommons.org/ns#"
   xmlns:rdf="http://www.w3.org/1999/02/22-rdf-syntax-ns#"
   xmlns:svg="http://www.w3.org/2000/svg"
   xmlns="http://www.w3.org/2000/svg"
   xmlns:sodipodi="http://sodipodi.sourceforge.net/DTD/sodipodi-0.dtd"
   xmlns:inkscape="http://www.inkscape.org/namespaces/inkscape"
   version="1.0"
   id="Ebene_3"
   x="0px"
   y="0px"
   width="609.734px"
   height="648px"
   viewBox="-181.235 -153.725 609.734 648"
   enable-background="new -181.235 -153.725 609.734 648"
   xml:space="preserve"
   sodipodi:docname="Adobe_PDF_Icon_File_White.svg"
   inkscape:version="0.92.3 (2405546, 2018-03-11)"><metadata
   id="metadata93"><rdf:RDF><cc:Work
       rdf:about=""><dc:format>image/svg+xml</dc:format><dc:type
         rdf:resource="http://purl.org/dc/dcmitype/StillImage" /><dc:title></dc:title></cc:Work></rdf:RDF></metadata><defs
   id="defs91">
	
		
	

	
		
	

	
		
	

		
	
			<linearGradient
   y2="-148.7317"
   x2="-6.8195"
   y1="99.0037"
   x1="73.674599"
   gradientUnits="userSpaceOnUse"
   id="SVGID_3_">
				<stop
   id="stop50"
   style="stop-color:#8A0000"
   offset="0.1273" />
				<stop
   id="stop52"
   style="stop-color:#900000;stop-opacity:0.9993"
   offset="0.2441" />
				<stop
   id="stop54"
   style="stop-color:#A00000;stop-opacity:0.9985"
   offset="0.3979" />
				<stop
   id="stop56"
   style="stop-color:#BC0000;stop-opacity:0.9975"
   offset="0.5725" />
				<stop
   id="stop58"
   style="stop-color:#E20000;stop-opacity:0.9965"
   offset="0.761" />
				<stop
   id="stop60"
   style="stop-color:#FA0000;stop-opacity:0.9959"
   offset="0.8667" />
			</linearGradient>
			
			<linearGradient
   y2="-158.5524"
   x2="-9.8001003"
   y1="108.8245"
   x1="77.075897"
   gradientUnits="userSpaceOnUse"
   id="SVGID_4_">
				<stop
   id="stop65"
   style="stop-color:#5E0000"
   offset="0.3152" />
				<stop
   id="stop67"
   style="stop-color:#830000;stop-opacity:0.9992"
   offset="0.4436" />
				<stop
   id="stop69"
   style="stop-color:#AE0000;stop-opacity:0.9982"
   offset="0.6183" />
				<stop
   id="stop71"
   style="stop-color:#CD0000;stop-opacity:0.9972"
   offset="0.7755" />
				<stop
   id="stop73"
   style="stop-color:#E00000;stop-opacity:0.9964"
   offset="0.9081" />
				<stop
   id="stop75"
   style="stop-color:#E70000;stop-opacity:0.9959"
   offset="1" />
			</linearGradient>
			
			
		
		
			<linearGradient
   id="SVGID_2_"
   gradientUnits="userSpaceOnUse"
   x1="912.19897"
   y1="67.436302"
   x2="938.31769"
   y2="91.511803"
   gradientTransform="matrix(1,0,0,-1,-610.564,39.2651)">
			<stop
   offset="0"
   style="stop-color:#FFFFFF"
   id="stop18" />
			<stop
   offset="1"
   style="stop-color:#C8C8C8"
   id="stop20" />
		</linearGradient>
		
		
	
		
			<linearGradient
   id="SVGID_1_"
   gradientUnits="userSpaceOnUse"
   x1="698.78589"
   y1="-300.46219"
   x2="868.23187"
   y2="6.5634999"
   gradientTransform="matrix(1,0.0011,0.0011,-1,-610.6781,38.1169)">
			<stop
   offset="0"
   style="stop-color:#FFFFFF"
   id="stop4" />
			<stop
   offset="1"
   style="stop-color:#E1E1E1"
   id="stop6" />
		</linearGradient>
		
		
	</defs><sodipodi:namedview
   pagecolor="#ffffff"
   bordercolor="#666666"
   borderopacity="1"
   objecttolerance="10"
   gridtolerance="10"
   guidetolerance="10"
   inkscape:pageopacity="0"
   inkscape:pageshadow="2"
   inkscape:window-width="2560"
   inkscape:window-height="1377"
   id="namedview89"
   showgrid="false"
   inkscape:zoom="5.8271605"
   inkscape:cx="153.41605"
   inkscape:cy="548.90062"
   inkscape:window-x="-8"
   inkscape:window-y="859"
   inkscape:window-maximized="1"
   inkscape:current-layer="layer4"
   inkscape:pagecheckerboard="true" />







<g
   inkscape:groupmode="layer"
   id="layer4"
   inkscape:label="Layer 1"
   style="display:inline"><rect
     style="fill:none;stroke:#c8c8c8;stroke-width:6.00449991"
     id="rect3372"
     x="-173.561"
     y="-95.046005"
     width="414.34"
     height="139.261" /><g
     id="g32"
     transform="translate(0,26)"
     style="fill:#ffffff"><path
       id="path4463"
       d="m 115.929,262.786 c 11.188,-21.929 23.903,-46.636 34.08,-71.441 v 0 l 4.024,-9.792 C 140.74,130.969 132.769,90.365 139.89,64.11 v 0 c 1.917,-6.845 9.845,-10.998 18.321,-10.998 v 0 l 5.165,0.076 h 0.948 c 11.604,-0.178 17.068,14.583 17.688,20.322 v 0 c 1.024,9.558 -3.398,25.734 -3.398,25.734 v 0 c 0,-6.532 0.256,-17.087 -3.867,-26.195 v 0 C 169.948,62.51 165.364,56.214 161.254,55.216 v 0 c -2.075,1.386 -4.092,4.256 -4.783,9.777 v 0 c -1.431,7.741 -1.86,17.512 -1.86,22.549 v 0 c 0,17.796 3.504,41.285 10.39,65.499 v 0 c 1.299,-3.749 2.442,-7.351 3.351,-10.726 v 0 c 1.412,-5.319 10.389,-40.578 10.389,-40.578 v 0 c 0,0 -2.262,46.935 -5.422,61.136 v 0 c -0.677,3.001 -1.424,5.969 -2.202,9.007 v 0 c 11.355,31.727 29.652,60.044 51.479,80.424 v 0 c 8.606,8.043 19.475,14.528 29.762,20.439 v 0 c 22.465,-3.21 43.149,-4.726 60.405,-4.535 v 0 c 22.894,0.302 39.699,3.688 46.504,10.391 v 0 c 3.332,3.258 4.684,7.193 5.104,11.604 v 0 c 0.1,1.716 -0.736,5.748 -0.981,6.76 v 0 c 0.245,-1.225 0.245,-7.249 -18.133,-13.115 v 0 c -14.474,-4.627 -41.563,-4.483 -74.068,-1.023 v 0 c 37.597,18.394 74.225,27.533 85.833,22.054 v 0 c 2.838,-1.383 6.28,-6.099 6.28,-6.099 v 0 c 0,0 -2.046,9.296 -3.515,11.62 v 0 c -1.875,2.525 -5.553,5.26 -9.04,6.182 v 0 c -18.332,4.891 -66.051,-6.427 -107.651,-30.197 v 0 c -46.478,6.845 -97.521,19.49 -138.436,32.91 v 0 C 64.453,389.758 34.225,422.12 9.634,409.809 v 0 l -9.041,-4.546 c -3.675,-2.102 -4.236,-7.219 -3.386,-11.386 v 0 C 0.074,379.85 17.663,358.723 52.994,337.626 v 0 c 3.803,-2.301 20.743,-11.258 20.743,-11.258 v 0 c 0,0 -12.541,12.138 -15.479,14.52 v 0 C 30.058,363.997 9.245,393.07 9.764,404.341 v 0 l 0.102,0.983 C 33.821,401.91 69.745,353.152 115.929,262.786 m 14.636,7.494 c -7.714,14.528 -15.254,27.998 -22.215,40.366 v 0 c 38.506,-16.133 79.95,-26.457 119.401,-33.791 v 0 c -5.302,-3.661 -10.449,-7.538 -15.292,-11.636 v 0 c -21.725,-18.393 -38.288,-41.34 -50.294,-65.487 v 0 c -7.614,20.513 -16.668,42.311 -31.6,70.548"
       inkscape:connector-curvature="0"
       style="fill:#ffffff" /></g><path
     inkscape:connector-curvature="0"
     style="fill:#ffffff;stroke:none"
     id="path78"
     d="M 248.511,53.122 H -181.236 V -102.85 H 248.511 Z M 233.053,-87.389 h -398.84 V 37.629 h 398.84 z" /><path
     style="fill:#ffffff"
     inkscape:connector-curvature="0"
     id="path80"
     d="m -65.448,-74.06 h 30.151 c 8.963,0 15.836,2.645 20.617,7.934 4.815,5.25 7.221,12.746 7.221,22.494 0,9.79 -2.406,17.329 -7.221,22.619 -4.781,5.25 -11.654,7.875 -20.617,7.872 H -47.283 V 19.225 H -65.448 V -74.06 m 18.166,17.431 v 26.055 h 10.052 c 3.521,0 6.243,-1.124 8.162,-3.373 1.919,-2.292 2.878,-5.521 2.878,-9.686 0,-4.166 -0.958,-7.374 -2.878,-9.623 -1.918,-2.249 -4.64,-3.374 -8.162,-3.374 h -10.052 m 70.775,0.75 V 1.044 h 6.509 c 7.424,0 13.087,-2.437 16.986,-7.311 3.932,-4.874 5.899,-11.956 5.899,-21.244 0,-9.249 -1.952,-16.286 -5.852,-21.121 -3.899,-4.832 -9.578,-7.248 -17.033,-7.248 H 23.493 M 5.327,-74.06 h 19.155 c 10.696,0 18.655,1.02 23.874,3.06 5.254,2.002 9.752,5.416 13.495,10.249 3.304,4.206 5.756,9.059 7.361,14.556 1.604,5.501 2.406,11.727 2.406,18.684 0,7.039 -0.803,13.331 -2.406,18.871 -1.605,5.498 -4.058,10.35 -7.362,14.558 -3.774,4.831 -8.303,8.268 -13.587,10.309 -5.285,1.999 -13.211,2.998 -23.781,2.998 H 5.327 V -74.06 m 80.209,0 h 49.023 v 18.181 h -30.858 v 17.372 h 29.017 v 18.184 H 103.701 V 19.226 H 85.536 V -74.06" /></g><g
   inkscape:groupmode="layer"
   id="layer5"
   inkscape:label="Layer 2"
   style="display:inline"
   sodipodi:insensitive="true"><path
     style="fill:none;fill-opacity:1;stroke:#ffffff;stroke-width:15;stroke-miterlimit:4;stroke-dasharray:none;stroke-opacity:1"
     d="M 135.043,50.874484 V 15.892 v 0 h 278.339 c 61.784,43.892 132.342,109.453 180.63,180.928 V 625.016 H 135.043 V 206.84739"
     id="path5645"
     transform="translate(-181.235,-153.725)"
     inkscape:connector-curvature="0" /><path
     d="M 232.147,-137.833 C 299.36,-88.92 363.359,-28.669 412.777,43.095 380.77,9.85 336.879,-7.895 284.796,-5.617 290.949,-67.26 267.176,-107.07 232.147,-137.833 Z"
     id="path25-5"
     inkscape:connector-curvature="0"
     style="fill:none;stroke:#ffffff;stroke-width:15;stroke-miterlimit:4;stroke-dasharray:none;stroke-opacity:1" /></g></svg>