<?xml version="1.0" encoding="UTF-8" standalone="no"?>
<svg
   xmlns:dc="http://purl.org/dc/elements/1.1/"
   xmlns:cc="http://creativecommons.org/ns#"
   xmlns:rdf="http://www.w3.org/1999/02/22-rdf-syntax-ns#"
   xmlns:svg="http://www.w3.org/2000/svg"
   xmlns="http://www.w3.org/2000/svg"
   xmlns:sodipodi="http://sodipodi.sourceforge.net/DTD/sodipodi-0.dtd"
   xmlns:inkscape="http://www.inkscape.org/namespaces/inkscape"
   width="2500"
   height="2442"
   viewBox="0 0 110.031 107.5"
   version="1.1"
   id="svg6"
   sodipodi:docname="MicrosoftWord_white.svg"
   inkscape:version="0.92.3 (2405546, 2018-03-11)">
  <metadata
     id="metadata12">
    <rdf:RDF>
      <cc:Work
         rdf:about="">
        <dc:format>image/svg+xml</dc:format>
        <dc:type
           rdf:resource="http://purl.org/dc/dcmitype/StillImage" />
        <dc:title />
      </cc:Work>
    </rdf:RDF>
  </metadata>
  <defs
     id="defs10" />
  <sodipodi:namedview
     pagecolor="#ffffff"
     bordercolor="#666666"
     borderopacity="1"
     objecttolerance="10"
     gridtolerance="10"
     guidetolerance="10"
     inkscape:pageopacity="0"
     inkscape:pageshadow="2"
     inkscape:window-width="2560"
     inkscape:window-height="1377"
     id="namedview8"
     showgrid="false"
     inkscape:pagecheckerboard="true"
     inkscape:zoom="0.096642097"
     inkscape:cx="-431.46186"
     inkscape:cy="1221"
     inkscape:window-x="-8"
     inkscape:window-y="859"
     inkscape:window-maximized="1"
     inkscape:current-layer="svg6" />
  <path
     style="fill:#ffffff;stroke-width:22.71627998"
     d="M 1306.5742 0 C 871.26216 77.53066 435.6553 151.63093 0.38867188 227.73047 C 0.38867188 889.91 0.093360247 1552.3858 0.38867188 2214.8379 C 433.40638 2290.6648 866.74199 2363.0609 1298.8965 2442 L 1476.3555 2442 L 1476.3555 2214.8379 C 1760.5816 2214.8379 2044.5351 2214.2686 2328.8066 2215.6543 C 2377.056 2213.4054 2430.7362 2217.0859 2472.1934 2187.5547 C 2505.4273 2136.7384 2496.9085 2073.134 2499.748 2015.7754 C 2495.7727 1456.387 2501.7241 896.72431 2496.9082 337.33594 C 2502.8599 272.59454 2452.0441 222.3249 2387.3027 228.86719 C 2083.7451 224.02862 1780.1857 228.86583 1476.3555 227.16211 L 1476.3555 0 L 1306.5742 0 z M 1476.3555 312.34961 L 2413.4023 312.34961 L 2413.4023 2129.6504 L 1476.3555 2129.6504 L 1476.3555 1902.4883 L 2214.6348 1902.4883 L 2214.6348 1788.9062 L 1476.3555 1788.9062 L 1476.3555 1646.9297 L 2214.6348 1646.9297 L 2214.6348 1533.3496 L 1476.3555 1533.3496 L 1476.3555 1391.373 L 2214.6348 1391.373 L 2214.6348 1277.791 L 1476.3555 1277.791 L 1476.3555 1135.8145 L 2214.6348 1135.8145 L 2214.6348 1022.2324 L 1476.3555 1022.2324 L 1476.3555 880.25586 L 2214.6348 880.25586 L 2214.6348 766.67383 L 1476.3555 766.67383 L 1476.3555 624.69727 L 2214.6348 624.69727 L 2214.6348 511.11719 L 1476.3555 511.11719 L 1476.3555 312.34961 z M 1138.1562 780.87305 C 1073.9828 1056.0126 1017.7592 1333.445 947.61133 1606.8809 C 900.17974 1631.5962 829.19154 1605.7454 772.96875 1609.7207 C 735.19158 1421.7662 691.1905 1234.9017 657.38867 1046.084 C 624.17747 1229.5179 581.01656 1411.2495 542.9668 1593.5703 C 488.44773 1590.7308 433.65741 1587.3219 378.82031 1583.6191 C 331.70675 1333.7401 276.3237 1085.5661 232.32227 835.11914 C 280.86695 832.84751 329.70603 830.84825 378.27344 829.14453 C 407.50929 1010.0115 440.74301 1190.0596 466.29883 1371.1992 C 506.39306 1185.5164 547.26018 999.81228 587.01367 814.08398 C 640.96483 810.97185 694.91602 808.69891 748.86719 805.85938 C 786.62164 997.53934 825.2396 1188.902 866.12891 1379.7188 C 898.22701 1182.655 933.73234 986.15903 968.05664 789.39062 C 1024.8473 787.41431 1081.6381 784.28049 1138.1562 780.87305 z "
     transform="matrix(0.04402129,0,0,0.04402129,-0.01111753,0)"
     id="path2" />
</svg>
