<?xml version="1.0" encoding="UTF-8" standalone="no"?>
<svg
   xmlns:dc="http://purl.org/dc/elements/1.1/"
   xmlns:cc="http://creativecommons.org/ns#"
   xmlns:rdf="http://www.w3.org/1999/02/22-rdf-syntax-ns#"
   xmlns:svg="http://www.w3.org/2000/svg"
   xmlns="http://www.w3.org/2000/svg"
   xmlns:sodipodi="http://sodipodi.sourceforge.net/DTD/sodipodi-0.dtd"
   xmlns:inkscape="http://www.inkscape.org/namespaces/inkscape"
   version="1.1"
   id="Layer_1"
   x="0px"
   y="0px"
   width="334.63086"
   height="471.37549"
   viewBox="0 0 334.63086 471.37549"
   enable-background="new 0 0 512 512"
   xml:space="preserve"
   sodipodi:docname="HTML5.svg"
   inkscape:version="0.92.3 (2405546, 2018-03-11)"><metadata
   id="metadata29"><rdf:RDF><cc:Work
       rdf:about=""><dc:format>image/svg+xml</dc:format><dc:type
         rdf:resource="http://purl.org/dc/dcmitype/StillImage" /><dc:title></dc:title></cc:Work></rdf:RDF></metadata><defs
   id="defs27">
	
	
	
	
</defs><sodipodi:namedview
   pagecolor="#ffffff"
   bordercolor="#666666"
   borderopacity="1"
   objecttolerance="10"
   gridtolerance="10"
   guidetolerance="10"
   inkscape:pageopacity="0"
   inkscape:pageshadow="2"
   inkscape:window-width="2560"
   inkscape:window-height="1377"
   id="namedview25"
   showgrid="false"
   inkscape:pagecheckerboard="true"
   fit-margin-top="0"
   fit-margin-left="0"
   fit-margin-right="0"
   fit-margin-bottom="0"
   inkscape:zoom="2.4990692"
   inkscape:cx="167.31543"
   inkscape:cy="251.69371"
   inkscape:window-x="-8"
   inkscape:window-y="859"
   inkscape:window-maximized="1"
   inkscape:current-layer="Layer_1" />
<g
   style="fill:#ffffff"
   id="g10"
   transform="translate(-88.685547,-20.312)">
		<path
   inkscape:connector-curvature="0"
   style="fill:#ffffff"
   id="path2"
   d="m 119.387,20.312 h 21.298 V 41.357 H 160.17 V 20.312 h 21.303 V 84.039 H 160.17 V 62.7 h -19.485 v 21.338 h -21.298 z" />
		<path
   inkscape:connector-curvature="0"
   style="fill:#ffffff"
   id="path4"
   d="M 209.482,41.444 H 190.728 V 20.312 h 58.812 v 21.133 h -18.759 v 42.594 h -21.3 V 41.444 Z" />
		<path
   inkscape:connector-curvature="0"
   style="fill:#ffffff"
   id="path6"
   d="m 258.879,20.312 h 22.21 l 13.661,22.392 13.648,-22.392 h 22.219 V 84.039 H 309.405 V 52.453 L 294.75,75.111 h -0.366 L 279.719,52.453 v 31.585 h -20.84 z" />
		<path
   inkscape:connector-curvature="0"
   style="fill:#ffffff"
   id="path8"
   d="m 341.219,20.312 h 21.308 v 42.664 h 29.955 v 21.062 h -51.263 z" />
	</g><path
   style="fill:#ffffff"
   d="M 0,91.67042 30.470703,433.41066 167.23242,471.3755 304.12304,433.42823 334.63086,91.67042 Z M 62.339843,161.5298 H 167.31445 272.28906 l -3.75391,41.91406 h -101.2207 -59.16992 l 3.83203,42.91992 h 55.33789 97.40625 l -11.5,128.6836 -85.90625,23.81445 -0.0664,0.0195 -85.859367,-23.83398 -6.00391,-67.29883 h 42.076167 l 3.11524,34.91406 46.67969,12.60742 0.0586,-0.0195 v 0.002 l 46.72852,-12.61328 4.86328,-54.36133 h -51.58987 -0.002 -93.667967 z"
   id="path12"
   inkscape:connector-curvature="0" />
</svg>