<?xml version="1.0" encoding="UTF-8" standalone="no"?>
<!-- Created with Inkscape (http://www.inkscape.org/) -->

<svg
   xmlns:dc="http://purl.org/dc/elements/1.1/"
   xmlns:cc="http://creativecommons.org/ns#"
   xmlns:rdf="http://www.w3.org/1999/02/22-rdf-syntax-ns#"
   xmlns:svg="http://www.w3.org/2000/svg"
   xmlns="http://www.w3.org/2000/svg"
   xmlns:sodipodi="http://sodipodi.sourceforge.net/DTD/sodipodi-0.dtd"
   xmlns:inkscape="http://www.inkscape.org/namespaces/inkscape"
   width="22.32794mm"
   height="20.931364mm"
   viewBox="0 0 22.327939 20.931364"
   version="1.1"
   id="svg8"
   inkscape:version="0.92.3 (2405546, 2018-03-11)"
   sodipodi:docname="SharePoint.svg">
  <defs
     id="defs2">
    <clipPath
       id="clipPath831"
       clipPathUnits="userSpaceOnUse">
      <path
         inkscape:connector-curvature="0"
         id="path829"
         d="M 0,60 H 324 V 0 H 0 Z" />
    </clipPath>
  </defs>
  <sodipodi:namedview
     id="base"
     pagecolor="#ffffff"
     bordercolor="#666666"
     borderopacity="1.0"
     inkscape:pageopacity="0.0"
     inkscape:pageshadow="2"
     inkscape:zoom="1.4"
     inkscape:cx="-0.027808571"
     inkscape:cy="-72.084317"
     inkscape:document-units="mm"
     inkscape:current-layer="layer1"
     showgrid="false"
     fit-margin-top="0"
     fit-margin-left="0"
     fit-margin-right="0"
     fit-margin-bottom="0"
     inkscape:window-width="1278"
     inkscape:window-height="1368"
     inkscape:window-x="-7"
     inkscape:window-y="867"
     inkscape:window-maximized="0"
     inkscape:pagecheckerboard="true" />
  <metadata
     id="metadata5">
    <rdf:RDF>
      <cc:Work
         rdf:about="">
        <dc:format>image/svg+xml</dc:format>
        <dc:type
           rdf:resource="http://purl.org/dc/dcmitype/StillImage" />
        <dc:title></dc:title>
      </cc:Work>
    </rdf:RDF>
  </metadata>
  <g
     inkscape:label="Layer 1"
     inkscape:groupmode="layer"
     id="layer1"
     transform="translate(-46.174927,-28.754559)">
    <g
       id="g837"
       transform="matrix(0.35277777,0,0,-0.35277777,66.386201,37.045119)"
       style="fill:#ffffff">
      <path
         d="m 0,0 c -0.42,0 -0.83,-0.044 -1.225,-0.126 -1.526,3.912 -4.505,7.085 -8.279,8.872 0.031,0.248 0.053,0.499 0.053,0.755 0,3.313 -2.687,5.999 -6,5.999 -1.404,0 -2.693,-0.486 -3.716,-1.295 V 10.1 7.236 4.796 c 1.023,-0.809 2.312,-1.295 3.716,-1.295 2.047,0 3.852,1.027 4.934,2.591 3.093,-1.525 5.514,-4.185 6.726,-7.443 C -5.138,-2.451 -6,-4.124 -6,-5.999 c 0,-1.897 0.883,-3.585 2.257,-4.685 -1.196,-3.317 -3.641,-6.028 -6.774,-7.574 -1.083,1.565 -2.888,2.591 -4.935,2.591 -1.403,0 -2.693,-0.486 -3.715,-1.294 v -2.441 -2.863 -4.106 c 1.022,-0.809 2.312,-1.295 3.715,-1.295 3.314,0 6,2.687 6,6 0,0.256 -0.021,0.507 -0.052,0.754 3.823,1.81 6.828,5.046 8.336,9.028 0.377,-0.074 0.768,-0.115 1.168,-0.115 3.313,0 6,2.686 6,6 C 6,-2.686 3.313,0 0,0"
         style="fill:#ffffff;fill-opacity:1;fill-rule:nonzero;stroke:none"
         id="path839"
         inkscape:connector-curvature="0" />
    </g>
    <g
       id="g841"
       transform="matrix(0.35277777,0,0,-0.35277777,53.125355,43.333453)"
       style="fill:#ffffff">
      <path
         d="M 0,0 C -2.84,-2.061 -6.561,-1.189 -9.551,0.04 -9.59,1.78 -9.631,3.52 -9.689,5.27 -7.77,3.85 -4.93,1.76 -2.641,3.7 -0.87,6.67 -4.35,8.561 -6.36,10 c -4.32,2.61 -4.48,9.75 -0.29,12.54 2.45,1.55 5.44,1.06 8.14,0.681 C 1.529,21.58 1.57,19.93 1.609,18.29 -0.641,19 -3.51,20.43 -5.36,18.141 -6.65,14.77 -2.57,13.5 -0.6,11.74 3.25,9.25 3.58,2.85 0,0 m -19.627,34.993 -0.075,-46.667 34.834,-6.333 v 59.333 z"
         style="fill:#ffffff;fill-opacity:1;fill-rule:nonzero;stroke:none"
         id="path843"
         inkscape:connector-curvature="0" />
    </g>
  </g>
</svg>
