<?xml version="1.0" encoding="UTF-8" standalone="no"?>
<!-- Created with Inkscape (http://www.inkscape.org/) -->

<svg
   xmlns:dc="http://purl.org/dc/elements/1.1/"
   xmlns:cc="http://creativecommons.org/ns#"
   xmlns:rdf="http://www.w3.org/1999/02/22-rdf-syntax-ns#"
   xmlns:svg="http://www.w3.org/2000/svg"
   xmlns="http://www.w3.org/2000/svg"
   xmlns:sodipodi="http://sodipodi.sourceforge.net/DTD/sodipodi-0.dtd"
   xmlns:inkscape="http://www.inkscape.org/namespaces/inkscape"
   width="104.95371mm"
   height="20.931364mm"
   viewBox="0 0 104.95371 20.931364"
   version="1.1"
   id="svg8"
   inkscape:version="0.92.3 (2405546, 2018-03-11)"
   sodipodi:docname="SharePoint_logo_and_wordmark.svg">
  <defs
     id="defs2">
    <clipPath
       id="clipPath831"
       clipPathUnits="userSpaceOnUse">
      <path
         inkscape:connector-curvature="0"
         id="path829"
         d="M 0,60 H 324 V 0 H 0 Z" />
    </clipPath>
  </defs>
  <sodipodi:namedview
     id="base"
     pagecolor="#ffffff"
     bordercolor="#666666"
     borderopacity="1.0"
     inkscape:pageopacity="0.0"
     inkscape:pageshadow="2"
     inkscape:zoom="1.4"
     inkscape:cx="116.04362"
     inkscape:cy="-72.084314"
     inkscape:document-units="mm"
     inkscape:current-layer="layer1"
     showgrid="false"
     fit-margin-top="0"
     fit-margin-left="0"
     fit-margin-right="0"
     fit-margin-bottom="0"
     inkscape:window-width="1278"
     inkscape:window-height="1368"
     inkscape:window-x="-7"
     inkscape:window-y="867"
     inkscape:window-maximized="1"
     inkscape:pagecheckerboard="true" />
  <metadata
     id="metadata5">
    <rdf:RDF>
      <cc:Work
         rdf:about="">
        <dc:format>image/svg+xml</dc:format>
        <dc:type
           rdf:resource="http://purl.org/dc/dcmitype/StillImage" />
        <dc:title></dc:title>
      </cc:Work>
    </rdf:RDF>
  </metadata>
  <g
     inkscape:label="Layer 1"
     inkscape:groupmode="layer"
     id="layer1"
     transform="translate(-46.174928,-28.754559)">
    <g
       transform="matrix(0.35277777,0,0,-0.35277777,38.869535,49.921155)"
       inkscape:label="345588-sharepoint"
       id="g823"
       style="fill:#ffffff">
      <g
         id="g825"
         style="fill:#ffffff">
        <g
           clip-path="url(#clipPath831)"
           id="g827"
           style="fill:#ffffff">
          <g
             transform="translate(318.2148,13.1396)"
             id="g833"
             style="fill:#ffffff">
            <path
               inkscape:connector-curvature="0"
               id="path835"
               style="fill:#ffffff;fill-opacity:1;fill-rule:nonzero;stroke:none"
               d="m 0,0 c -0.911,-0.519 -2.068,-0.777 -3.486,-0.777 -4.116,0 -6.179,2.403 -6.179,7.223 v 14.977 h -4.148 v 3.242 h 4.148 v 6.115 l 3.603,1.205 v -7.32 H 0 V 21.423 H -6.062 V 7.132 c 0,-1.755 0.279,-2.977 0.84,-3.672 0.567,-0.694 1.478,-1.043 2.739,-1.043 0.958,0 1.782,0.274 2.483,0.833 z m -18.194,-0.234 h -3.626 v 14.217 c 0,5.386 -1.891,8.079 -5.672,8.079 -1.947,0 -3.566,-0.759 -4.848,-2.288 -1.285,-1.522 -1.923,-3.462 -1.923,-5.816 V -0.234 h -3.626 v 24.899 h 3.626 v -4.17 h 0.085 c 1.8,3.161 4.42,4.737 7.867,4.737 2.631,0 4.64,-0.873 6.034,-2.628 1.39,-1.755 2.083,-4.293 2.083,-7.626 z m -31.164,24.899 h 3.603 V -0.234 h -3.603 z m -0.505,8.963 c 0,0.704 0.233,1.303 0.684,1.788 0.459,0.477 1.012,0.72 1.665,0.72 0.686,0 1.261,-0.243 1.72,-0.737 0.469,-0.485 0.701,-1.084 0.701,-1.771 0,-0.712 -0.232,-1.31 -0.701,-1.779 -0.459,-0.477 -1.034,-0.713 -1.72,-0.713 -0.653,0 -1.206,0.236 -1.665,0.697 -0.451,0.47 -0.684,1.066 -0.684,1.795 M -75.301,12.065 c 0,-2.943 0.74,-5.289 2.218,-7.051 1.486,-1.764 3.454,-2.645 5.913,-2.645 2.562,0 4.514,0.849 5.875,2.549 1.362,1.696 2.039,4.115 2.039,7.238 0,3.144 -0.685,5.579 -2.052,7.31 -1.364,1.731 -3.316,2.596 -5.862,2.596 -2.473,0 -4.448,-0.898 -5.919,-2.677 -1.481,-1.785 -2.212,-4.23 -2.212,-7.32 m -3.673,-0.168 c 0,4.14 1.084,7.401 3.246,9.777 2.17,2.369 5.126,3.558 8.886,3.558 3.495,0 6.248,-1.14 8.264,-3.42 2.008,-2.281 3.018,-5.458 3.018,-9.537 0,-3.946 -1.089,-7.117 -3.26,-9.509 -2.179,-2.395 -5.04,-3.591 -8.598,-3.591 -3.479,0 -6.27,1.165 -8.388,3.501 -2.107,2.338 -3.168,5.412 -3.168,9.221 M -97.942,31.089 V 16.587 h 4.214 c 2.749,0 4.85,0.647 6.305,1.94 1.455,1.295 2.179,3.147 2.179,5.549 0,4.675 -2.662,7.013 -7.984,7.013 z m 0,-18.075 V -0.234 h -3.676 v 34.881 h 9.052 c 3.531,0 6.28,-0.914 8.24,-2.726 1.969,-1.819 2.956,-4.366 2.956,-7.658 0,-3.398 -1.158,-6.148 -3.462,-8.267 -2.311,-2.116 -5.185,-3.112 -8.62,-2.982 z m -13.815,1.584 c 0,2.32 -0.536,4.141 -1.609,5.451 -1.074,1.309 -2.57,1.965 -4.483,1.965 -1.803,0 -3.361,-0.679 -4.668,-2.029 -1.309,-1.352 -2.125,-3.146 -2.444,-5.387 z m 3.736,-3.315 h -16.987 c 0.079,-2.882 0.82,-5.081 2.226,-6.601 1.41,-1.528 3.291,-2.289 5.664,-2.289 2.74,0 5.229,0.938 7.479,2.823 V 1.617 c -2.141,-1.634 -4.919,-2.442 -8.319,-2.442 -3.376,0 -6.012,1.148 -7.92,3.444 -1.914,2.299 -2.864,5.475 -2.864,9.537 0,3.775 1.052,6.898 3.144,9.374 2.101,2.475 4.7,3.702 7.795,3.702 3.107,0 5.51,-1.05 7.215,-3.163 1.712,-2.101 2.567,-5.021 2.567,-8.749 z m -22.635,9.526 c -0.685,0.535 -1.649,0.801 -2.895,0.801 -1.641,0 -3.018,-0.826 -4.125,-2.483 -1.113,-1.668 -1.664,-3.865 -1.664,-6.616 V -0.234 h -3.628 v 24.899 h 3.628 v -5.166 h 0.084 c 0.554,1.756 1.387,3.129 2.501,4.116 1.119,0.987 2.363,1.48 3.747,1.48 1.006,0 1.792,-0.113 2.352,-0.33 z m -29.109,-9.22 c -1.869,-0.25 -3.254,-0.729 -4.148,-1.423 -0.902,-0.695 -1.345,-1.877 -1.345,-3.552 0,-1.268 0.426,-2.288 1.282,-3.056 0.865,-0.776 1.994,-1.165 3.386,-1.165 1.928,0 3.531,0.711 4.793,2.134 1.261,1.425 1.89,3.205 1.89,5.355 v 2.517 z m -6.909,11.299 c 2.34,1.568 5.032,2.344 8.069,2.344 5.562,0 8.347,-3.055 8.347,-9.186 v -16.28 h -3.627 v 3.905 h -0.137 c -1.658,-3 -4.11,-4.496 -7.361,-4.496 -2.343,0 -4.202,0.647 -5.573,1.95 -1.377,1.309 -2.07,3.047 -2.07,5.223 0,4.635 2.63,7.327 7.891,8.081 l 7.228,1.091 c 0,4.328 -1.656,6.494 -4.971,6.494 -2.919,0 -5.518,-1.034 -7.796,-3.106 z m -7.891,-23.122 h -3.602 v 14.355 c 0,5.297 -1.901,7.941 -5.697,7.941 -1.899,0 -3.502,-0.767 -4.809,-2.296 -1.308,-1.537 -1.96,-3.504 -1.96,-5.903 V -0.234 h -3.626 v 36.847 h 3.626 V 20.495 h 0.086 c 1.844,3.161 4.473,4.737 7.89,4.737 5.39,0 8.092,-3.379 8.092,-10.133 z m -46.097,6.04 c 1.035,-0.93 2.42,-1.682 4.164,-2.248 1.735,-0.575 3.345,-0.858 4.816,-0.858 4.879,0 7.322,1.844 7.322,5.525 0,1.059 -0.257,1.989 -0.762,2.797 -0.514,0.802 -1.176,1.489 -2.001,2.055 -0.817,0.575 -2.528,1.554 -5.127,2.944 -3.128,1.673 -5.307,3.218 -6.528,4.633 -1.222,1.408 -1.837,3.188 -1.837,5.315 0,2.847 1.112,5.094 3.339,6.753 2.225,1.657 4.971,2.492 8.239,2.492 3.315,0 5.689,-0.413 7.112,-1.238 v -4.425 c -1.945,1.399 -4.474,2.104 -7.586,2.104 -2.132,0 -3.867,-0.469 -5.214,-1.416 -1.346,-0.954 -2.015,-2.264 -2.015,-3.939 0,-1.511 0.475,-2.749 1.424,-3.703 0.95,-0.956 2.926,-2.192 5.913,-3.714 3.503,-1.81 5.853,-3.524 7.074,-5.135 1.214,-1.617 1.821,-3.364 1.821,-5.24 0,-3.016 -1.051,-5.33 -3.144,-6.931 -2.101,-1.602 -5.003,-2.402 -8.707,-2.402 -1.175,0 -2.646,0.192 -4.412,0.582 -1.774,0.381 -3.065,0.858 -3.891,1.431 z" />
          </g>
          <g
             transform="translate(78,36.499)"
             id="g837"
             style="fill:#ffffff">
            <path
               inkscape:connector-curvature="0"
               id="path839"
               style="fill:#ffffff;fill-opacity:1;fill-rule:nonzero;stroke:none"
               d="m 0,0 c -0.42,0 -0.83,-0.044 -1.225,-0.126 -1.526,3.912 -4.505,7.085 -8.279,8.872 0.031,0.248 0.053,0.499 0.053,0.755 0,3.313 -2.687,5.999 -6,5.999 -1.404,0 -2.693,-0.486 -3.716,-1.295 V 10.1 7.236 4.796 c 1.023,-0.809 2.312,-1.295 3.716,-1.295 2.047,0 3.852,1.027 4.934,2.591 3.093,-1.525 5.514,-4.185 6.726,-7.443 C -5.138,-2.451 -6,-4.124 -6,-5.999 c 0,-1.897 0.883,-3.585 2.257,-4.685 -1.196,-3.317 -3.641,-6.028 -6.774,-7.574 -1.083,1.565 -2.888,2.591 -4.935,2.591 -1.403,0 -2.693,-0.486 -3.715,-1.294 v -2.441 -2.863 -4.106 c 1.022,-0.809 2.312,-1.295 3.715,-1.295 3.314,0 6,2.687 6,6 0,0.256 -0.021,0.507 -0.052,0.754 3.823,1.81 6.828,5.046 8.336,9.028 0.377,-0.074 0.768,-0.115 1.168,-0.115 3.313,0 6,2.686 6,6 C 6,-2.686 3.313,0 0,0" />
          </g>
          <g
             transform="translate(40.4102,18.6738)"
             id="g841"
             style="fill:#ffffff">
            <path
               inkscape:connector-curvature="0"
               id="path843"
               style="fill:#ffffff;fill-opacity:1;fill-rule:nonzero;stroke:none"
               d="M 0,0 C -2.84,-2.061 -6.561,-1.189 -9.551,0.04 -9.59,1.78 -9.631,3.52 -9.689,5.27 -7.77,3.85 -4.93,1.76 -2.641,3.7 -0.87,6.67 -4.35,8.561 -6.36,10 c -4.32,2.61 -4.48,9.75 -0.29,12.54 2.45,1.55 5.44,1.06 8.14,0.681 C 1.529,21.58 1.57,19.93 1.609,18.29 -0.641,19 -3.51,20.43 -5.36,18.141 -6.65,14.77 -2.57,13.5 -0.6,11.74 3.25,9.25 3.58,2.85 0,0 m -19.627,34.993 -0.075,-46.667 34.834,-6.333 v 59.333 z" />
          </g>
        </g>
      </g>
    </g>
  </g>
</svg>
